/* XPM */
static char *_bca2f7fe2634c4396328cd47be7fb62bgbDwGV2cjzEZ8zW[] = {
/* columns rows colors chars-per-pixel */
"60 60 79 1 ",
"  c #010000",
". c #070302",
"X c #070401",
"o c #080302",
"O c #080402",
"+ c #0C0603",
"@ c #0E0604",
"# c #0F0803",
"$ c #0F0804",
"% c #100704",
"& c #100803",
"* c #110804",
"= c #150B05",
"- c #170C06",
"; c #190D07",
": c #1B0F08",
"> c #1F120A",
", c #21130B",
"< c #23150C",
"1 c #26170E",
"2 c #27180E",
"3 c #28190F",
"4 c #2A1A10",
"5 c #2C1B11",
"6 c #2D1C12",
"7 c #301E13",
"8 c #332014",
"9 c #362216",
"0 c #382417",
"q c #3B2619",
"w c #3C2719",
"e c #3F291B",
"r c #402A1B",
"t c #412A1C",
"y c #432C1D",
"u c #472E1F",
"i c #482F1F",
"p c #482F20",
"a c #4A3121",
"s c #4C3222",
"d c #4E3423",
"f c #4F3424",
"g c #533726",
"h c #563927",
"j c #583B28",
"k c #5A3C29",
"l c #5C3E2B",
"z c #5F3F2C",
"x c #5F402C",
"c c #61412D",
"v c #64432E",
"b c #65442F",
"n c #674630",
"m c #694731",
"M c #6B4833",
"N c #6D4933",
"B c #6E4A34",
"V c #734E36",
"C c #744F37",
"Z c #775139",
"A c #785239",
"S c #7B543B",
"D c #7E563C",
"F c #80573E",
"G c #82593F",
"H c #845A3F",
"J c #845A40",
"K c #875C41",
"L c #8A5E43",
"P c #8F6246",
"I c #906346",
"U c #926447",
"Y c #936548",
"T c #956648",
"R c #97684A",
"E c #98684A",
"W c #9B6A4C",
"Q c #9C6B4C",
"! c #9D6C4D",
/* pixels */
"ZKPPKZci6=        o>9gmAGJFCcu5-;8dnDPEEPDnd8;       =6icZKP",
"mZDDZmgq<+        +3ylVKITPFmg0>-6icZKPPKZci6=       +<qgmZD",
"gcnncgt5-.        +4ucAPEQTJVhq>*<qgmZDDZmgq<+  ...  .-5tgcn",
"qiddiq5;..+=;;=+. +4uxZLTEIGNhq>O-5tgcnncgt5-O%><<,;O .;5qid",
"<6886<-OO-<6886<-.O<qhBFLPKAba7; .;5qiddiq5;@;49eew61*..-<68",
"+=;;=+..;5qiddiq5;O-7ulBZAVmhe2+  .-<6886<-+;6tgkkjaq1* .+=;",
"      .-5tgcnncgt5-+>8uhxclgr4-    .+=;;=+.=6yjmVCBbgq1O    ",
"      +<qgmZDDZmgq<++>7quuy94-.           O,9gNDKLJAvp6;    ",
"      =6icZKPPKZci6=.O-<443>*.  O*;;-%.   +4uxCLTRIGMhq>.   ",
"..    ;8dnDPEEPDnd8;   O+++o  .*,48871>O  +4ucAPE!TKVhq>.   ",
"<,;O  ;8dnDPEEPDnd8;          *10yddse8>O +4uxCLTRIGMhq>.   ",
"ew61*.=6icZKPPKZci6=         +1qslnmvju8>.O,9gNDKLJAvp6;    ",
"kjaq1*+<qgmZDDZmgq<+        .:8scCDFABkt4*.=6yjmVCBbgq1+    ",
"CBbgq1+-5tgcnncgt5-.        +1ejVHPILDmf9: .;6tgkkjaq2;-;;=+",
"LJAvp6;O;5qiddiq5;.  ..     +4ucZLTEYJBhq>. O;49eew63>16886<",
"RIGMhq>..-<6886<-oX*:>>:*.  +4ucZLTEYJBhq>.  .%><<,>>6qiddiq",
"!TKVhq>. .+=;;=+.O>49qq94>O +1ejVHPILDmf9:      ..O;5tgcnncg",
"RIGMhq>.        O>8tfhhft8>O.:8scCDFABkt4*        +<qgmZDDZm",
"LJAvp6;        .>8ukmBBmku8>.+1qslnmvju8>O%-;;*O  =6icZKPPKZ",
"CBbgq1O        %1ejBDJJDBje1%.*10yddse8>*>17884,*o;8dnDPEEPD",
"kjaq1*         -7svALYYLAvs7- .*,48871>*>8esddy01=;8dnDPEEPD",
"ew61*.         ;8dmFIEEIFmd8;   O*;;-%O>8ujvmnlsq1>6icZKPPKZ",
"<,;O  .*;;;*.  ;8dnDPTTPDnd8;         *4tkBAFDCcs8,1qgmZDDZm",
"..   +>28882>+.*4ylCHLLHCly4*         :9fmDLIPHVje1>5tgcnncg",
"    +,9tdddt9,+O,0scVZZVcs0,O        .>qhBJYETLZcu4*;5qiddiq",
"   .,9albmbla9,O*1qsjccjsq1*  ...    .>qhBJYETLZcu4#o-<6886<",
"   =6uzVSGSVzu6=.*18euue81*.O=>>>;+   :9fmDLIPHVje1+ .+=;;=+",
"  .>0hNGPUPGNh0>. +:1441:+X+<50qq72-. *4tkBAFDCcs8:.        ",
"  .<ekVLTWTLVke<.  .++++. +<0ughhae4-..>8ujvmnlsq1*++++.    ",
"  .<ekVLTWTLVke<.        O<0scmVNbhr4* O>8esddy02:>1441:+   ",
"  .>0hNGPUPGNh0>.        =5ucCFJGAmg9>o O>17884<>28euue81*. ",
"   =6uzVSGSVzu6=        .>0gmFPTIKVly3+  .%-;;=-1qsjccjsq1* ",
"-O .,9albmbla9,.        .>qhVJTQEPAcu4+       O,0scVZZVcs0,O",
"7>+ +,9tdddt9,+  ..     .>qhNGIETLZxu4+       *4ylCHLLHCly4*",
"u8>O.+>28882>+O*:>>:*.   ;7abAKPLFBhq<O       ;8dnDPTTPDnd8;",
"lu7-  .*;;;*O+>49qq94>O  +2ehmVAZBlu7-        ;8dmFIEEIFmd8;",
"Bhq<O       O>8tfhhft8>O  -4rglcxhu8>O        -7svALYYLAvs7-",
"Zxu4+      .>8ukmBBmku8>. .-49yuuq7>+.%-;;*O  %1ejBDJJDBje1%",
"Acu4+      %1ejBDJJDBje1%  .*>344<-O+>17884,*..>8ukmBBmku8>.",
"Vly3+      -7svALYYLAvs7-    o+++O.+>8esddy01*.O>8tfhhft8>O.",
"mg9>o      ;8dmFIEEIFmd8;         .>8ujvmnlsq1+.O>49qq94>++>",
"hr4*       ;8dnDPTTPDnd8;         *4tkBAFDCcs8:. .*:>>:*.O>8",
"e4-.  ...  *4ylCHLLHCly4*         :9fmDLIPHVje1+    ..  .>8u",
"2-..+;>>>=OO,0scVZZVcs0,O        .>qhBJYETLZcu4+        %1ej",
"+..-27qq05<&*1qsjccjsq1*+=;;=+.  .>qhBJYETLZcu4+        -7sv",
" .-4eahhgu0<**18euue81-;<6886<-.  :9fmDLIPHVje1+        ;8dm",
" *4rhbNVmcs0<O+:1441:=:5qiddiq5;. *4tkBAFDCcs8:.        ;8dn",
"o>9gmAGJFCcu5= .++++O;5tgcnncgt5-..>8ujvmnlsq1+   ...   *4yl",
"+3ylVKITPFmg0>.     +<qgmZDDZmgq<+ O>8esddy01* .%><<,;O O,0s",
"+4ucAPEQTJVhq>.     =6icZKPPKZci6=  O>17884,*.O;49eew61*.*1q",
"+4uxZLTEIGNhq>.     ;8dnDPEEPDnd8;   .%-;;*O .;6tgkkjaq1*.*1",
"O<qhBFLPKAba7;      ;8dnDPEEPDnd8;           =6yjmVCBbgq1O +",
" -7ulBZAVmhe2+      =6icZKPPKZci6=          O,9gNDKLJAvp6;  ",
" O>8uhxclgr4-.+=;;=+$<qgmZDDZmgq<+   ...    +4uxCLTRIGMhq>. ",
"  +>7quuy94;@-<6886<;:5tgcnncgt5-. O;>>>;O  +4ucAPE!TKVhq>. ",
"   O-<443>*+;5qiddiq5>>5qiddiq5;..*16qqq61*.+4uxCLTRIGMhq>. ",
"     O+++o.-5tgcnncgt6:;<6886<-. *1qphhhpq1*O,9gNDKLJAvp6;  ",
"          +<qgmZDDZmgq<*+=;;=+. O1qgvMVMvgq1+=6yjmVCBbgq1O  ",
"          =6icZKPPKZci6=        ;6abAGKGAba6;O;6tgkkjaq1*   ",
"          ;8dnDPEEPDnd8;       .,wjBJITIJBjw,.O;49eew61*.   "
};
