/* XPM */
static char *_09a93f3b3f0473c95ef9f6137e85a3blwpbVZ1YzOfRlqUA[] = {
/* columns rows colors chars-per-pixel */
"30 30 25 1 ",
"  c #3F3626",
". c #37362F",
"X c #3B372B",
"o c #3D3629",
"O c #39352D",
"+ c #333732",
"@ c #363530",
"# c #4D3503",
"$ c #4D3504",
"% c #4B350A",
"& c #4D3508",
"* c #4B350C",
"= c #4D350D",
"- c #473515",
"; c #483511",
": c #4D3511",
"> c #483615",
", c #4D3515",
"< c #44351A",
"1 c #43351E",
"2 c #44361E",
"3 c #483518",
"4 c #413523",
"5 c #443620",
"6 c #403625",
/* pixels */
"########$$$$##############$*%$",
"#######$%>>%$$$$$########$2o4;",
"#######$>66>$;22;$&==&###*o@O<",
"###,3:#$>66>&2OO2=<oo<&##$2o4;",
"##1@@O:$*>>%&2OO2:o@@o=##$*;%$",
"#:O@+@1&363&$;22;=o@@o=#%<4>$#",
"#:O@+@1;O+O;#$==$&<oo<&$>o@6%#",
"##1@@O:3@+@3#-44-#&==&#$>o@6%#",
"#$$,3:#=o@o==o@@o=##$%$#%<4>$#",
"$*<<*$##=>=#;O++O;#$>4<%#$%$##",
"$<oo<%$#####&4@@4=#%6@o>$###$$",
"$;4422*$&--&#&-22>$%6@o>$##*<<",
"$*>2OO2=6@@6&#*6@X>&>4<%##&2OO",
">666@O2-.++.>#;O@@2$$%$###* @@",
"4@@664;=o@@o=#&2O6;#$$$$##$<oo",
"<oo<=%$%<66-###&;*#$%>>%$##$**",
"%>>*&&>663=$$######$>66>$##$$#",
"#$&>466@@4*>2;#####$>66>$#$;<*",
"##&4@@ooo<>X@6*####$;<<%$$; O5",
"**=4@@63>;2@@O;###$%263$#$<O@ ",
"oo2>44>&;24 O2&$&&$;6O1*$#*5 <",
"@@o*&&$$2OO1;&$>44>=3442;$$;;$",
"O.4%###$<oO2&#&4@@4&%2XX<&< 2*",
"<<*####$>oOo<$&4@@4&$;22;*o@O<",
"$$$*&&$$*o@@ %$>  >$#$&&$*o@O<",
"#$2o42>&&4@@6&$3oo3$#$#$&=< 2*",
"#*o@OO6;$>oO4&%4@@4*&=&>44>*&#",
"#%4O  2%$*4o2$$>  >3oo36@@4&##",
"$$;<;;%$#$;<*$#$**= @@ 6@@4&##",
"$$$$$$$###$$$#$$##& @@ 344>$##"
};
