/* XPM */
static char *da5742cbe9414bf7e40c5a8cbd16b800nsSGC9XFrvqyGqMK[] = {
/* columns rows colors chars-per-pixel */
"60 60 126 2 ",
"   c #010000",
".  c #0C0503",
"X  c #0D0C03",
"o  c #100704",
"O  c #140A05",
"+  c #180D06",
"@  c #1B0F08",
"#  c #191804",
"$  c #1E120A",
"%  c #1E1C08",
"&  c #201F07",
"*  c #23150C",
"=  c #26190D",
"-  c #291A0F",
";  c #2C1C11",
":  c #301E13",
">  c #222007",
",  c #262508",
"<  c #29270E",
"1  c #2D2B0D",
"2  c #312F0D",
"3  c #34320E",
"4  c #39360F",
"5  c #342115",
"6  c #382417",
"7  c #312F10",
"8  c #3B2619",
"9  c #3F291B",
"0  c #353312",
"q  c #393712",
"w  c #3D3B13",
"e  c #442C1D",
"r  c #482F1F",
"t  c #413E13",
"y  c #472E20",
"u  c #482F20",
"i  c #4C3322",
"p  c #523625",
"a  c #553927",
"s  c #5B3D2A",
"d  c #454216",
"f  c #494616",
"g  c #4B4817",
"h  c #484618",
"j  c #4C4919",
"k  c #514E1B",
"l  c #55521C",
"z  c #59561D",
"x  c #5D591E",
"c  c #605C1F",
"v  c #5F402C",
"b  c #5F5B20",
"n  c #62422D",
"m  c #635F21",
"M  c #674630",
"N  c #694731",
"B  c #6D4933",
"V  c #734E36",
"C  c #775139",
"Z  c #7C543B",
"A  c #666222",
"S  c #696523",
"D  c #6D6925",
"F  c #726E26",
"G  c #777227",
"H  c #767228",
"J  c #797529",
"K  c #7F7A2B",
"L  c #80573E",
"P  c #81583E",
"I  c #827D2D",
"U  c #865B41",
"Y  c #895D42",
"T  c #8E6145",
"R  c #926447",
"E  c #97684A",
"W  c #9C6B4C",
"Q  c #86812E",
"!  c #89842F",
"~  c #8B8630",
"^  c #8E8931",
"/  c #928C32",
"(  c #969134",
")  c #9B9536",
"_  c #9F9937",
"`  c #A39D39",
"'  c #A7A13A",
"]  c #ACA53C",
"[  c #AFA83D",
"{  c #B3AC3F",
"}  c #B6AF40",
"|  c #B7B040",
" . c #B8B141",
".. c #BBB442",
"X. c #BCB542",
"o. c #BFB843",
"O. c #BFB844",
"+. c #C0B944",
"@. c #C4BD45",
"#. c #C5BE46",
"$. c #C7C047",
"%. c #C8C147",
"&. c #CBC448",
"*. c #CEC649",
"=. c #D0C84A",
"-. c #D4CC4B",
";. c #D4CD4C",
":. c #D9D14E",
">. c #DAD24E",
",. c #DFD750",
"<. c #E2DA51",
"1. c #E4DB52",
"2. c #E7DF53",
"3. c #E8DF53",
"4. c #E8E053",
"5. c #E9E154",
"6. c #EFE656",
"7. c #F0E756",
"8. c #F2EA57",
"9. c #F3EB58",
"0. c #F4EB58",
"q. c #F5EC58",
"w. c #F8EF5A",
"e. c #FAF15A",
"r. c #FCF25B",
"t. c #FDF45B",
/* pixels */
"E W W W W R Z v 9 +                                                                                   @ 5 a V Y R E E R ",
"W W W W W E Y B e $                                                               . O * = = * O .     * e n Z R E W W E ",
"W W W W W E Y B e $       O + + + O               . f     g z g ,               . * 5 e e e e 5 * . . = e M P E W W W W ",
"W W W W W E U N e $   . $ = 5 5 5 = $ .           f G ( ` ] ] ' ` / d         . = 9 p n M M n p 9 = O = e M L R W W W W ",
"E W W W E T C s 5 O . * 5 e i i i e 5 * .       3 S ) X.*.;.;.=.#.] Q       . * 9 s B C P P C B s 9 = * 9 s C T E E E E ",
"Y T R R Y Z n i = . * 5 i s n N n s i 5 *       f I { ;.2.6.6.4.:. .^       O 5 p B P T R R T P B p 5 $ ; i M Z Y T T Y ",
"B Z Z Z V n i ; o O ; e s V Z P Z V s e ; O     l ^ X.,.8.e.e.8.<.X./       * e n C T E W W E T C n e * $ 5 p n V C C V ",
"i s s s p e ; O   $ 6 a B P T R T P B a 6 $     z / O.<.q.t.t.q.<.O./       = e M P R W W W W R P M e = . $ 5 y a s s a ",
"- 5 5 5 ; $ .     * 9 s V Y E W E Y V s 9 *     z / o.<.0.r.r.0.<.o./       = e M P R W W W W R P M e = . . + - 5 8 8 5 ",
"+ O . .           * 9 s V Y E W E Y V s e *     z / X.<.8.e.e.8.<.X./       * e n C T E W W E T C v e *       . O + + O ",
"- O               $ 6 a B P T R T P B a 6 $     l ^ X.<.8.e.e.8.<.X.^       O 5 p B P T R R T P B p 5 O                 ",
"9 - .             O ; e s V Z P Z V s e ; O     l ^ X.<.8.e.e.8.<.X.^       . * 9 s B C P P C B s 9 * .                 ",
"i : @               * 5 i s n N n s i 5 *     % c / +.<.8.e.e.8.<.+./ l &     . = 9 p n M M n p 9 = .                   ",
"s 9 *               . * 5 e i i i e 5 * .     g K ` %.2.9.e.e.9.2.%.` I x #     . * 5 e e e e 5 * .                     ",
"s 9 *                 . $ = 5 5 5 = $ .     g / ' O.;.5.0.e.e.0.5.;.O.' ( I       . O * = = * O .                       ",
"s 9 *                     O + + + O         ^  .&.:.2.6.q.w.w.q.6.2.:.&. ._                                             ",
"i : @                                     S ] *.<.6.8.q.q.w.w.q.q.8.6.<.*.] S                                           ",
"9 - .                                     K { :.6.q.w.q.q.q.q.q.q.w.q.6.:.{ K                                           ",
"- O                                       S { :.8.e.e.w.q.q.q.q.w.e.e.8.:.{ S                                           ",
"O                                         K } :.8.e.e.w.q.q.q.q.w.e.e.8.:.} K                                           ",
"      7 w h j j j j j j j j j j j h t d m / ..:.7.w.e.w.q.q.w.w.w.e.w.7.:.../ m d t h j j j j j j j j j j j h t 0       ",
"    w x F I Q ! Q Q Q Q Q I I I I I I I / ] %.<.8.w.e.q.q.q.w.w.q.e.w.8.<.%.] / I I I I I I I Q Q Q Q Q ! Q I F x w     ",
"  < l K ) [ |  . .| | } } { { { { { { { ..%.:.5.9.q.w.q.w.w.w.w.q.w.q.9.5.:.%...{ { { { { { { } } | |  . .| [ ) K l     ",
"  1 A / | *.:.:.:.:.:.:.:.:.:.:.:.:.:.:.:.<.5.8.q.q.w.q.q.w.w.w.q.w.q.q.8.5.<.:.:.:.:.:.:.:.:.:.:.:.:.:.:.:.*. .( A     ",
"  1 S ) +.:.<.2.2.2.2.5.6.6.7.7.7.7.6.6.7.8.9.q.q.q.w.w.w.w.w.w.q.q.q.q.q.9.8.7.6.6.7.7.7.7.6.6.5.2.2.2.2.<.:.#.` F     ",
"  X x ^ { %.=.=.=.;.,.5.8.w.e.e.e.e.e.w.w.w.q.q.q.q.w.w.w.w.q.w.q.q.q.q.q.q.w.w.w.e.e.e.e.e.w.8.5.,.;.=.=.=.&..._ F     ",
"    t F / ` ] ] ] | %.:.6.e.r.r.e.e.e.e.e.e.w.w.q.q.q.q.q.q.q.q.w.q.w.w.w.e.e.e.e.e.e.e.r.r.e.6.:.%.| ] ] ] ' ` ^       ",
"      t x D F F G ~ ] *.2.8.q.q.q.q.q.q.q.q.q.q.q.q.q.q.q.q.q.q.w.w.w.w.q.w.w.w.q.q.q.q.q.q.8.2.*.] ~ J F H H F         ",
"          1 1 < q m /  .;.<.3.3.2.5.6.8.q.q.q.q.q.q.q.q.q.q.q.q.q.q.q.w.q.q.q.q.8.6.5.2.3.3.<.;.../ A                   ",
"      . . . . .   w F ( { o.#.$.&.=.,.5.q.e.e.w.q.q.q.q.q.q.w.w.w.q.w.w.w.e.w.0.5.,.=.&.%.%.#.X.' I       . . . . .     ",
"    O * ; ; ; * O   t c G ! / ( ` { &.<.8.e.e.e.q.q.q.q.w.w.w.w.q.q.q.q.w.e.w.8.<.&.{ ` ) ) ) ( ~ F   . + * ; ; - $ O   ",
". + ; 5 e e e 5 ; + .   3 d j z D / | ;.5.q.w.w.q.q.q.w.w.w.w.w.q.q.q.q.q.q.9.5.;.| / F             . $ : 8 e e e 5 ; + ",
"+ ; e p v n v p e ; +           q D ` #.:.2.6.8.q.q.q.q.w.w.w.w.w.w.q.q.8.6.2.:.#.` G d           . $ 5 e a v n s p e ; ",
"; e s B V C V B s e ; o           d ! ' X.*.:.5.0.q.w.q.q.w.w.w.w.e.q.0.5.:.*.X.' ^ j             + : e s B C C V N a 9 ",
"5 p N Z Y T Y Z N p 5 $             S I ) { *.<.8.w.w.q.q.q.q.q.q.w.w.8.<.*.{ ) Q F             . * 8 a B L Y T U C n i ",
"9 s V U E E E U V s 9 *             1 A K _ +.,.8.w.e.q.q.q.q.q.q.e.w.8.,.+._ K S               . ; e v C Y E E R P B a ",
"9 s V Y E W E Y V s 9 *             x J / ] %.<.8.w.e.q.q.q.q.w.q.e.e.8.<.%.] / J S             . ; e n C T E W E U V a ",
"9 s B U R E R U B s 9 *           j I ` { #.:.4.9.w.w.q.q.q.q.q.q.w.q.9.4.:.#.{ ` Q &           . - e s V U R E T L N p ",
"; i n C P U P C n i ; +         1 S ) X.-.<.5.8.q.q.w.q.w.w.q.q.q.w.q.q.8.5.<.-.X._ F w         . $ 5 p N C P U L V n e ",
"= 8 p n N V N n p 8 = .       2 z Q { =.2.8.q.q.q.q.q.q.w.w.w.w.q.q.q.q.q.q.8.2.=.{ ~ S           O ; e a n B V N n i 6 ",
"O = 8 u a a a u 8 = O       t S ~ ' #.,.7.q.e.w.q.q.w.w.w.w.w.w.w.w.q.q.w.e.q.7.,.#.] / I D         + ; 9 i a a p e 6 * ",
"  O = ; 8 8 8 ; = O       w F ) | &.:.5.0.w.e.w.q.w.w.e.e.e.e.e.e.w.w.q.w.e.w.0.5.:.&. .` Q l         + = : 8 8 6 ; * . ",
"    . + $ $ $ + .       1 m / ..;.1.6.8.q.q.w.q.q.q.q.q.q.q.q.q.q.q.q.q.q.w.q.q.8.6.1.;.X.) D w         . + $ $ $ O .   ",
"                      j S ! ] *.2.8.q.q.q.q.w.q.q.8.6.5.2.2.2.2.5.6.8.q.q.w.q.q.q.q.8.2.*.] ! D l                       ",
"                    m I ) ] #.:.6.q.e.e.e.e.e.e.q.5.,.=.&.#.#.&.=.,.5.q.e.e.e.e.e.e.q.6.:.#.] ) Q D                     ",
"                  g I ` X.*.:.5.8.w.e.e.e.e.e.w.8.<.&.{ ` ) ) ` { &.<.8.w.e.e.e.e.e.w.8.5.:.*.X.` I                     ",
"                w A /  .;.2.6.8.q.q.q.0.8.9.0.8.5.;.| / F b b F / | ;.5.8.0.9.8.0.q.q.q.8.6.2.;. ./ S w                 ",
"              z F ~ ] &.1.8.w.w.q.9.6.3.<.<.<.<.:.#.` H d     d H ` #.:.<.<.<.<.3.6.9.q.w.w.8.1.&.] ~ F l 1             ",
"            l Q _ { #.:.6.q.e.e.q.6.<.=.#.O.X.X. .] ! h         w ! ]  .X.X.O.#.=.<.6.q.e.e.q.6.:.#.{ _ Q A             ",
"          1 F ` X.=.,.5.8.q.e.e.q.4.=. ._ / ^ / ^ I 1 . O + + O . 3 I ^ / ^ / `  .=.4.q.e.e.q.8.5.,.=.X.` J w           ",
"        & z ~ } ;.2.7.0.q.q.q.0.6.:.#._ H           + * ; 5 5 ; * +           G _ #.:.6.0.q.q.q.0.7.2.;.} ^ A d         ",
"      4 A ! ] %.<.8.e.e.w.0.6.2.:.&.{ ~ z         + ; 8 r i i r 8 ; +         z ~ { &.:.2.6.0.w.e.e.8.<.%.] / K D 2     ",
"    w D ) | &.:.6.q.r.r.e.8.<.=.X.] ( A         + ; e p n M M n p e ; +         F ( ] X.=.<.8.e.r.r.q.6.:.&. .' / S     ",
"    z / ..-.<.5.8.q.e.e.q.5.;. .) I S 1       . * 8 p N C Z Z C N p 8 * .       > D I )  .;.5.q.e.e.q.8.5.<.-.o._ F     ",
"  1 S ) +.:.2.5.5.5.6.6.5.,.#.` J k           O ; r n C U T T U C n r ; O           l J ` #.,.5.6.6.5.5.5.2.:.#._ D     ",
"  1 m / { &.=.;.-.=.=.-.=.%.{ / k             + 5 i M Z T E E T Z M i 5 +             l / { %.=.-.=.=.-.;.=.&.{ / A     ",
"  X k H / ` ] ] ] ] ] ] ' ` ( G               + 5 i M Z T E E T Z M i 5 +               J ( ` ' ] ] ] ] ] ] ` / H k     ",
"    0 k A F H G H H H H H F S 1               O ; r n C U T T U C n r ; O               2 D F H H H H H G H F A k       ",
"                                              . * 8 p N C Z Z C N p 8 * .                                               ",
"                                                + ; e p n M M n p e ; +                                                 "
};
