/* XPM */
static char *_452535877d1443894d3a13e49105671m0KCHLyRdBgwE7yQ[] = {
/* columns rows colors chars-per-pixel */
"30 30 186 2 ",
"   c #0B0A0C",
".  c #120E0C",
"X  c #12100F",
"o  c #0E0E13",
"O  c #110F12",
"+  c #141213",
"@  c #16141A",
"#  c #18161A",
"$  c #1C191D",
"%  c #25211E",
"&  c #171925",
"*  c #241F23",
"=  c #282523",
"-  c #2F2A26",
";  c #25252C",
":  c #2B262A",
">  c #322E2B",
",  c #35312D",
"<  c #2C2932",
"1  c #302B32",
"2  c #363231",
"3  c #3A3632",
"4  c #3D3935",
"5  c #3E3A38",
"6  c #5B382F",
"7  c #413A35",
"8  c #423E3A",
"9  c #4E3F3C",
"0  c #5C3A30",
"q  c #7D3F34",
"w  c #46413D",
"e  c #49433D",
"r  c #59413B",
"t  c #6F483C",
"y  c #7C4336",
"u  c #71473A",
"i  c #744A3C",
"p  c #7D4C39",
"a  c #211E4B",
"s  c #454343",
"d  c #4B4641",
"f  c #4E4945",
"g  c #4F4D4B",
"h  c #534C46",
"j  c #584E47",
"k  c #524D49",
"l  c #5B4F4A",
"z  c #56524C",
"x  c #5A524D",
"c  c #505253",
"v  c #5E5651",
"b  c #5D5C5B",
"n  c #724E42",
"m  c #65524C",
"M  c #6F534C",
"N  c #795143",
"B  c #7C564C",
"V  c #695551",
"C  c #665C56",
"Z  c #635F5B",
"A  c #745D54",
"S  c #6B6059",
"D  c #75615A",
"F  c #595961",
"G  c #636462",
"H  c #6A6A6B",
"J  c #74726D",
"K  c #717475",
"L  c #747975",
"P  c #7C7C7B",
"I  c #834F3B",
"U  c #8F4D3F",
"Y  c #8C523E",
"T  c #964B43",
"R  c #865443",
"E  c #8E5542",
"W  c #885945",
"Q  c #845A4C",
"!  c #8D5D4C",
"~  c #915344",
"^  c #945945",
"/  c #945C4A",
"(  c #9A5F48",
")  c #825F55",
"_  c #8A5F51",
"`  c #A75E4B",
"'  c #93624F",
"]  c #9E6249",
"[  c #856156",
"{  c #8E6254",
"}  c #82625A",
"|  c #8C665A",
" . c #8D695C",
".. c #946555",
"X. c #9C6652",
"o. c #956857",
"O. c #9A6856",
"+. c #936758",
"@. c #936A5B",
"#. c #9A6C5C",
"$. c #9A705F",
"%. c #A3604F",
"&. c #A46552",
"*. c #A96552",
"=. c #A36A55",
"-. c #AC6D56",
";. c #A46D5A",
":. c #AB6F5A",
">. c #B46955",
",. c #B36D59",
"<. c #A9725F",
"1. c #B5755E",
"2. c #B9785F",
"3. c #8C6D68",
"4. c #936E62",
"5. c #9B6E60",
"6. c #967164",
"7. c #9C7263",
"8. c #95736A",
"9. c #9B756B",
"0. c #96796D",
"q. c #9E7A6E",
"w. c #967871",
"e. c #9C7B73",
"r. c #9E7F78",
"t. c #B06F61",
"y. c #A17565",
"u. c #AC7260",
"i. c #A17866",
"p. c #A27768",
"a. c #A47A6B",
"s. c #A87D6E",
"d. c #B27562",
"f. c #BD7262",
"g. c #BA7A63",
"h. c #A37E72",
"j. c #7D8A7C",
"k. c #9F8076",
"l. c #9C8179",
"z. c #A48275",
"x. c #AA8374",
"c. c #A1837A",
"v. c #7F8180",
"b. c #838484",
"n. c #898787",
"m. c #8C8B83",
"M. c #8A8E8B",
"N. c #9C8983",
"B. c #9B8D89",
"V. c #87948E",
"C. c #969595",
"Z. c #999C9C",
"A. c #A28984",
"S. c #AB928B",
"D. c #AF9C96",
"F. c #A19D9B",
"G. c #B29B94",
"H. c #9F9FA1",
"J. c #9EA1A2",
"K. c #A3A5A4",
"L. c #AFA9A8",
"P. c #B7A5A3",
"I. c #BFB0AC",
"U. c #ACAEB1",
"Y. c #AFB1B3",
"T. c #B1B3B5",
"R. c #B2B5B7",
"E. c #BBB8B7",
"W. c #B4B6B9",
"Q. c #C1AEA9",
"!. c #C2B2AD",
"~. c #CAC6C4",
"^. c #CECCCB",
"/. c #D4D3D2",
"(. c #D6D5D5",
"). c #DBD4D3",
"_. c #D7D9DA",
"`. c #D9D9DB",
"'. c #DBDBDD",
"]. c #E7E1DF",
"[. c #E8E7E6",
"{. c #EFEEEC",
"}. c #F6F3F3",
"|. c #FCFBF5",
" X c #FEFEFE",
".X c white",
/* pixels */
"Z z z z Z {.F.x k k f h k f b H b.b.b.b.v.P P G 4 3 2 > 7 , ",
"d e e 8 8 m.J > , 3 , , , 2 , , , , , , > > , > > > - % - - ",
"j h d e 8 8 8 > 3 3 , , , 3 3 3 3 , , , 3 , 2 , > > > % - > ",
"x x h f d w w 2 4 4 3 3 3 4 4 4 4 3 3 3 3 3 3 , , , , = > > ",
"C v x h f d L V.M.s 4 4 4 l A A m 8 4 8 5 4 4 3 3 4 4 5 3 3 ",
"S C v z k f L j.m.g 8 l 0.s.a.a.q.0.D d d 8 8 8 8 w w b 8 8 ",
"_._.`.'.'.`.`.(././.E.z.i.y.i.a.h.z.k.N.^.^.^.~.C.b s w 8 4 ",
"W.W.W.R.R.R.R.T.Y.F.q.7.7.y.a.h.x.x.z.c.B.U.Y.T.K.J 8 5 4 w ",
".X.X.X.X.X.X.X.X.XI.6.6.7.y.#.4.x.x.z.c.A.}..X.X/.M.8 4 4 e ",
".X.X.X.X.X.X.X.X.Xl.@.$.7.;.=.-.<.s.z.c.c.)..X.X(.C.w 4 3 e ",
".X.X.X.X.X.X.X.X.X0.4.#.O.-.1.2.g.d.a.k.r.P..X.X(.Z.d w 7 d ",
".X.X.X.X.X.X.X.X.X8.@.+./ :.1.g.g.u.o.9.w.c.}..X(.Z.f w 8 f ",
".X.X.X.X.X.X.X.X.X0.@.N u u ! 1.! i Q | w.e.)..X/.J.f w d h ",
".X.X.X.X.X.X.X.X.X0.| 6 0 n p :.W 0 r n 6.9.Q..X/.J.k f f h ",
".X.X.X.X.X.X.X.X.Xw.{ R i Q E =.X.! _ O.6.8.h..X/.K.k k f h ",
".X.X.X.X.X.X.X.X.XS._ &.,.*.^ &.=.,.,.d.6.8.q.].(.K.k k f h ",
".X.X.X.X.X.X.X.X.XD.Q &.>.` Y -.X.>.f.t.@.8.a.!.(.J.k k f h ",
".X.X.X.X.X.X.X.X.XD.Q ^ %.^ Y / X.=.&.;.4.9.q.S./.J.f f f h ",
".X}.|..X|.|..X.X.X!.Q ^ ( y y U E R =.<.4.q.q.h.E.J.d d e f ",
"P [..X.X.X.X.X.X}.e.Q R ] I q T ~ ' ;.#.9.q.a.h.N.J.d w w , ",
"& H b.n.n.H..X}.G.+._ t I ~ E E X.=...@.q.h.h.h.h.K.w w , . ",
"@ : ; 1 2 F ^.r.@.+.{ B N p ( &.;.' 6.8.q.h.h.h.h.L.8 4 2 c ",
": * $ $ 3 } +.@.+.+.+.#.+.{ ! { Q | 6.9.8.4.q.h.h.3.a a @ K ",
"+ $ $ 9 @.+.6.#.+.+.5.@.7.@.5.7.{ )  .8.8.8.) 4.h.q.< & ; s ",
"+ # m 6.+.6.i.#.+.o.7...y.y.@.+.[ ) B 4.| 4.8.} | 9.m & & X ",
"O V 4.6.6.s.7.#.@.o.#.o.a.y.7.9.h.9.Q 9.4.4. .[ N | A O o   ",
"m  .4.p.s.i.y.#.#.+.o.y.#.x.a.7.5.+.+.q.4.4.7.a. .+.M * o o ",
" .+.6.p.7.7.a.#.7.+...s.O.5.y.a.y.{ a. .7.6.9.7.y.#.) O o o ",
"+.o.7.p.p.a.s.#.7.o.#.y.s.o.#.7...6.9.9.6.4.8.i.#.7.| . X o ",
"+.o.7.y.a.s.a.@.y...y.o.x.a.O.a.y.@.7.6.@.6.q.a.7.7._ . . + "
};
