/* XPM */
static char *ff10d2472cad418df15efd628700ad8fVrR7FDcwwzu4R4J2[] = {
/* columns rows colors chars-per-pixel */
"60 60 64 1 ",
"  c #000000",
". c #0A0604",
"X c #0D0805",
"o c #0B0A0A",
"O c #120B06",
"+ c #150D08",
"@ c #180F09",
"# c #1C120C",
"$ c #111111",
"% c #181818",
"& c #21160E",
"* c #24180F",
"= c #231711",
"- c #261911",
"; c #2B1D15",
": c #2D2017",
"> c #2F2118",
", c #342113",
"< c #473224",
"1 c #493325",
"2 c #503628",
"3 c #553C2D",
"4 c #5B3F2C",
"5 c #5F4432",
"6 c #634532",
"7 c #654935",
"8 c #6B4C37",
"9 c #6D4D3A",
"0 c #714E3A",
"q c #6F503B",
"w c #74523C",
"e c #79563F",
"r c #765540",
"t c #7C5841",
"y c #7E5B43",
"u c #7F5C43",
"i c #7F5A44",
"p c #745B4A",
"a c #835E47",
"s c #845E47",
"d c #835F49",
"f c #826048",
"g c #8A634B",
"h c #8B644B",
"j c #8B644C",
"k c #8B654D",
"l c #91694F",
"z c #926950",
"x c #976D53",
"c c #966E56",
"v c #986E53",
"b c #9A6F54",
"n c #9A7055",
"m c #9C7156",
"M c #9F7357",
"N c #9E7358",
"B c #9F7458",
"V c #9F755B",
"C c #A07357",
"Z c #A07457",
"A c #A07358",
"S c #A07458",
"D c #A1775C",
"F c #A4775D",
/* pixels */
"          $  X......................XXXX.......  o          ",
"          oX,2333333333333333333333333333333332;..          ",
"          .@4akkhhhhhhhhhhhhgghhhhhhhhhhhhkkkka2O           ",
"           #7xSSmmmmmmmmmmmmmmmmmmmCmmmmmmNNSSx5#.          ",
"           #7vSSBmZZZZZZZZZZmZZZZZZZZZZZZZSSSSc7#.          ",
"           @7vSSmmmmZZmCCZZCmmmmCCZZmmmCmmCCSSn8&o          ",
"           @7bSSmmmCZCmmZCmmmmmmCZmmmmZZmmmCSSn9-o          ",
"           @7vSSmmCCZCmmmmCCCmCCCCmmmmZZmmCCSSn0-o          ",
"           #8bSBmmCCCmmmmmZZZZZZCCmmmmZZmmCmSSmw=o          ",
"           #8bSBmmmZZmmmmmZZZZCCZZmmmmZZmmCmSSmw*.          ",
"           #8bSBmmZZZZmmmmmCmmCmZZZZmmmZCCmmSSSe-.          ",
"           #8nSBmmZZZZmmmmmmmmmmZZZZmmCZCCmNSSDr-.          ",
"          .#8nSmmmCZZCCmmmmmmmmmmmmCZZCCCZCSSFDr-.          ",
"          .&8nSmmmZZZZmmmmmmmmZCmmmmZCZmZZmSSDDr=           ",
"          .&9nSSZZZZZZZZmmCmZZZZmmmCZZmmmmCSDFDr&           ",
"          .=0mSSCZZZZZZCmmCZZZZZmmmCZZmmmmmSSFDw#           ",
"          X=wmSSCmmmmmmmmmCmmmmmmmmmmmZZZmmNSSSw&           ",
"          o-wmSSmmmmmmmmZCCZmmmmmCmmmmZZCCmNSSSr&           ",
"          o-wmSSCmmmmmZZZZZZZZmmZCZZmZZZmmmSSDDi-.          ",
"          o-wmSSZmmmmCCZZZZZZCmmZZZZmCZZmmmSSSSa;.          ",
"          o-wmSSZZmmmmZZZZCmZZZZmmCZZZZZmCmNSSSa;.          ",
"          o-emSSZZmmmmZZZZZmZZCZmmZZZZZZCCCZSSSa;.          ",
"          o-eNSSZZZmmmCZZZmmmmCmmmmmZCCZCCCZSSSd;.          ",
"          o-wNSSZZCCmmZZZZmmmmmmmmmmmCmmCCCCSSDf;.          ",
"          o-wNSSCCZZmmmmZCmmCZZZZZZZZZmmCCAmmSSd;.          ",
"          o-wBSSmZZZmmmmmCmmZZZZZCZZCZmmmmCmmSSd;.          ",
"          o-wBSSmmZZmmmmmmmmmmZZmmmmCmmmmmmmBSDf:.          ",
"          o-wNSSmmZZZCmCmmmmmCCZmmmmmmmmCZZSSSDd>o          ",
"          o-wNSSmmmmZZZCmmCCmmmmCmmmmmmmCZCmSSSa>o          ",
"          o-wNSSmmmmZZZZmmmZmmmmCZmmmmmblhggkzma:o          ",
"          o-wmSCZZCZZZmmmmZZZZmmZZCZmCml93333wza;o          ",
"          o*wmSZZZZZZCmmmmZZZZZCZZCCCCml933<;3ku;o          ",
"          .&8bCSZZZmmmZZZZZZZCCmmmmmmmmnlhgr13kt;.          ",
"          .#8bZSZZCCmmZCZZCZZZmmmmmmmmmCZZmlqwlt;.          ",
"          .#8bZSZZCmmmmmmmCmZZZZZZmmmmmmZSZmlznt-.          ",
"          .#8bSSZZZmmmmmmmmmZZZCZZZCmmmCZZCCSSNt-.          ",
"          .#8mSSmmmmZZmmmmZZZCmmZZmmmmZCmCmmSSme-.          ",
"          .=wNSSmmmmZCmmmmZZmCmmZZmmmmZZCCmmSSAe-.          ",
"          .-rBSSmmZZZZmmmZZZmmmmZmmmCZZZCCmmSSSr-.          ",
"          .-tDSSmCCZZZmmmCZZmmmmCCmmZZZZZCmmSSSt;o          ",
"           &rSSSmmmZZZmmZZZZmmmmmmmmZZZZZZmmBSSt;o          ",
"           @9SSSmmmCZZmmCZZZmmmmmmmmZZZCZZmmBSZt;o          ",
"           O7SSSmmmmZZZmCmZZmmCmmmmmZZmmCmmmmSSt;o          ",
"           X5SSSmmmCZZCCmmZCmmCZZCmCCZmmCmmmmSAt;o          ",
"           O6BSSZZZCmmCCmmmmZZZZZZZZmmmmCmmmCSNr;o          ",
"           +8SSSZZZZmmmZmmmmZZZZZZZZmmmmCmmmCSAt;o          ",
"           #wSSNZZmmmmZZZZmmCZmmmmZCCmZZCCmmSSSt;o          ",
"           #wSSNZCmmmmZZZZZCmmmmmmmCCCZZCCmmSSSt;o          ",
"           #9SSSNNmmCCmCmmCZZZmmmmZZZCCmCCmmSSSt;o          ",
"           #8SSSNNCmCCZCmmZZZZmmmmZZZZmmZZmmSSSt;o          ",
"           #8SSSNNmmmmZZmmmmZCCmmmCZmmmmZZCCSSSr;o          ",
"           #0SSSAAmmmmCZmmmmZZmmmmZZmmmmCCCCSSSr;o          ",
"           #eDSSmmCCmmmmZZZmmmmmmmmmmZZZmmmCSSSt;o          ",
"           =aDSSmmmCmmmmZZCCmmmCmmmmmCZZmmmmSSBr;o          ",
"           ;sSSSmmZZZZmCZZCmmmZCCZmmCCZZNmNNSDDr-o          ",
"          .-sSSSmmZZZZZZZZZmmmZZZZmmmZZZNNNmSSDr=.          ",
"           :pDSSmmCZmmmZZZZZZZZZZZZZZZZZZmmmSSDq&.          ",
"          .&wDSSmmZZmmmCZZZZZCZZZZCZZZZZCCmmSSBq&.          ",
"           #qSSSZZZZmmmmmmZCmmmmmmCmCZmmmmmmSSSw-o          ",
"           #wSSSCZZZmmmCmmmCmmmmmmmmmmmmmmmmSSBr:%          "
};
