/* XPM */
static char *d28e879c1bd54e2feb17bee097a16413An7FzrZAfE3rdebW[] = {
/* columns rows colors chars-per-pixel */
"30 30 34 1 ",
"  c gray1",
". c #040202",
"X c #050403",
"o c #060505",
"O c #090604",
"+ c #0E0704",
"@ c #080807",
"# c #0E0804",
"$ c #0A0A09",
"% c #0D0B09",
"& c #0F0E0E",
"* c #100F0E",
"= c #10100F",
"- c #121110",
"; c #151312",
": c #9F7357",
"> c #9F7358",
", c #9F7458",
"< c #A07357",
"1 c #A07458",
"2 c #A0745A",
"3 c #A3765C",
"4 c #A1785E",
"5 c #A37760",
"6 c #F3F0EF",
"7 c #F4F0EF",
"8 c #F5F3F2",
"9 c #F6F4F3",
"0 c #F7F5F5",
"q c #F8F6F5",
"w c #FAF8F8",
"e c #FCFBFB",
"r c #FCFCFB",
"t c white",
/* pixels */
"tttt8o%O..ooO..ooO##OO o ttttt",
"tttt8&11:::::::::::::>13&ttttt",
"tttt8 11::::::::::::::14&rtttt",
"tttt8$11::::::::::::::11-etttt",
"tttt8-1,::::::::::::::11Oetttt",
"tttt9-1,::::::::::::::13=etttt",
"tttt9$1:::::::::::::::34=etttt",
"ttttq$11::::::::::::::33*wtttt",
"ttttq@11::::::::::::::13*wtttt",
"ttttq$11::::::::::::::33*wtttt",
"ttttqo11::::::::::::::1>*qtttt",
"ttttq 11::::::::::::::14&qtttt",
"ttttqo11:::::::::::::::3&9tttt",
"ttttqo11::::::::::::::,4$8tttt",
"ttttqo11::::::::::::::13$8tttt",
"ttttqo1:::::::::::::   ,&8tttt",
"ttttqo11::::::::::::::+,&7tttt",
"ttttq*11::::::::::::::1>o7tttt",
"ttttq*11::::::::::::::11o6tttt",
"ttttq 41::::::::::::::13$6tttt",
"ttttqO31::::::::::::::,1$6tttt",
"ttttq*11:::::::::::::::1O6tttt",
"tttt0&,1::::::::::::::<1O6tttt",
"tttt0-3>::::::::::::::13O6tttt",
"tttt9-31::::::::::::::13O6tttt",
"tttt9;31::::::::::::::13;6tttt",
"tttt8$41::::::::::::::14$6tttt",
"tttt8*31::::::::::::::15X6tttt",
"tttt8$41::::::::::::::14 6tttt",
"tttt8$31::::::::::::::>4o6tttt"
};
