/* XPM */
static char *_5cc5aecb21c4ad1b20a9ae6eba98523wzTbbOCKNP5qAMSw[] = {
/* columns rows colors chars-per-pixel */
"60 60 86 1 ",
"  c #010000",
". c #0C0503",
"X c #0D0D0D",
"o c #100704",
"O c #130A05",
"+ c #180D06",
"@ c #1B0F08",
"# c #1E1109",
"$ c #131313",
"% c #1C1C1C",
"& c #23150C",
"* c #27180E",
"= c #2A1A0F",
"- c #2C1B11",
"; c #311F13",
": c #342115",
"> c #382417",
", c #3A2618",
"< c #3F291B",
"1 c #252525",
"2 c #2A2A2A",
"3 c #353535",
"4 c #3F3F3F",
"5 c #442C1D",
"6 c #482F1F",
"7 c #482F20",
"8 c #4D3322",
"9 c #533725",
"0 c #553927",
"q c #573A28",
"w c #5B3D2A",
"e c #5F402C",
"r c #63422E",
"t c #664530",
"y c #684631",
"u c #6E4A34",
"i c #724E36",
"p c #775139",
"a c #7C543B",
"s c gray50",
"d c #F12B2B",
"f c #80573D",
"g c #82593E",
"h c #855A40",
"j c #875C41",
"k c #8B5F43",
"l c #8F6246",
"z c #916346",
"x c #926447",
"c c #936548",
"v c #956649",
"b c #97684A",
"n c #98684A",
"m c #9B6A4C",
"M c #9C6B4C",
"N c #9E6C4D",
"B c #DB24F8",
"V c #DC24F9",
"C c #DE2BF9",
"Z c #DE2DFA",
"A c #979797",
"S c gray62",
"D c gray65",
"F c #ACACAC",
"G c #B5B5B5",
"H c #BFBFBF",
"J c #94C185",
"K c #99C78A",
"L c #9AC98B",
"P c #9CCB8C",
"I c #9DCD8E",
"U c #A1D291",
"Y c gray77",
"T c #CDCDCD",
"R c LightGray",
"E c #DBDBDB",
"W c #E1E1E1",
"Q c #E4E4E4",
"! c #E5EBE3",
"~ c gray91",
"^ c #E9E9E9",
"/ c #EFEFEF",
"( c #F1F1F1",
") c gray96",
"_ c gray98",
"` c #FEFEFE",
/* pixels */
".&,9ypaapy9,&.     .&:60ww06:&.  O-5wyiiur9,*.  o-5wuafair8:",
"O-6rpjlljpr6-O     #:8wuiiuw8:# .&:9uajkhar7-+  @:9yakzlgiw<",
"+:8talnnlat8:+    o*5wigkkgiw5*o.-6eikvbzgy0,#  #,0uhcnvkpr6",
"+:8talnnlat8:+    +:8ralvvlar8:+o-6ralnNvji0,#  #,0uhcnvkpr6",
"O-6rpjlljpr6-O    +:8ygxmmxgy8:+o-6eikvbzgy0,#  @:8yakzlgiw<",
".&,9ypaapy9,&.    +:8ralvvlar8:+.&:9uajkhar7-+  o-5wuafair8:",
" +-59rttr95-+    .o*5wigkkgiw5*o O-5wyiiur9<-#+o.#:6wrytw8,*",
"  +-,6886,-+..@&&&#&:8wuiiuw8:#   +-59www85,::;*#o#:<8886>*o",
"   +&-::-&+.O=;<<<;-=:60ww06:&.   .+-:<55,56888<:#o#*:,,:-#.",
"    .O++O. O=<8www8<-=-><<>-&.      o#&*:58wtyrw6:#o#-:5<,-&",
"          .=<9yupuy95-@#&&#O          .#:8riafauw5-&-<80096>",
"          @;8yajkjay8;@               .*<wiglzkay8>:59ruiyr8",
"          &5wijxnxjuw<&               .-6rpkvnchu05<9yaghfir",
"          &5wpknNnkpw<&               .-6rpkvnchuq68wijzvlfy",
" o+++o    &<wujxnxjuw<&  IUUUUIL      .*<wiglzkay958ralbMvhi",
"#*:::*#.  @;8yajkjay8;@ LK(_`)/PK      @:8riafauw6,7epkvnzgu",
":58885:&. .=<9yupuy9<=. I)____)!J      .*,8wtyrw6:-,0ufkljar",
"8wryrw8:&  O=<8www8<=O  Q_dd_dd)(       o*>5888<:##;6wupaiy0",
"wiagaiw6-O  O=;<<<;=O   /`dd_dd)_        o&-::;*#..#:60erw95",
"uglxlgu0>#   .@&&&@.     `))`___          .o+++o   .#;,665:-",
"ikvmvkiw5&QW             ^(ZCZ`)             __     .+&--=#o",
"ikvmvkiw5&/(            ((B^)^V)^            __       ..... ",
"uglxlgu0># __          ^()W(`)_)))          )(              ",
"wiagaiw6-O  ()    YRTYRQHR(W/)_/RTY^EEF    __               ",
"8wryrw8:&    __   R^REEQ/))^/()QQQQ^^(E   (`                ",
":58885:&.     __  TE`````4222121``````E  __                 ",
"#*:::*#.       _) EQ````X`3```1`1`````Y ((         o+++o    ",
" o+++o          _`GW````%`3```1`1````(A/_        .#*:::*#.  ",
"                 _RW```X````%````X```__`        .&:58885:&. ",
"                  EE``$`````%`````%``)s         &:8wryrw8:& ",
"                  RQ`$`````````````%`(S        O-6wiagaiw6-O",
"                  W_`%``%%`````11``%`(S        #>0uglxlgu0>#",
"                  E_``$`%%`````11`$`_(S        &<wikvmvkiw<&",
"  o@##@o          W)``1```````````1`//F        &<wikvmvkiw<&",
".#-:,,:-#.        Q(```$%$$$.$X$.$``QWF        #>0uglxlgu0>#",
"#:580085:#.       T/`````````````````Ts        O-6wiagaiw6-O",
":6wyuuyw6:#       T(^^EW^/))^/())_))(Ys         &:8wryrw8:& ",
"<wuahhauw<*o      DHWWEQ)(Q/(Q/))_^QFGs         .&:58885:&. ",
"8rakcckar8;+        sQEQ//QQ///)QRESF            .#*:::*#.  ",
"8yfznnzfy8:+       DTWW/___`___)/^EQHG             o+++o    ",
"8talvvlat8:+       ``EEE^Q/EEYWTRHRRWF                      ",
"5wigkkgiw5-o      ``                  ``                    ",
">8rippir8>&.      (                    `                    ",
"*,8wrrw8,*o      ))       .@&&&@.      _)        o@##@o     ",
"o*:<66<:*o       )`      O=;<<<;=O     ``      .#-:,,:-#.   ",
" .@*--*@.        (_     O=<8www8<=O    `_     .#:580085:#.  ",
"   ....          _)    .=<9yupuy9<=.   `)     #:6wyuuyw6:#  ",
"                 )(    @;8yajkjay8;@   `_    o*<wuahhauw<*o ",
"                 )(    &<wujxnxjuw<&   `_    +;8rakcckar8;+ ",
"   o@##@o        )_    &<wpknNnkpw<&   `_    +:8yfznnzfy8:+ ",
" .#-:,,:-#.      )_    &<wujxnxjuw<&   `_    +:8talvvlat8:+ ",
".#:580085:#.     ))    @;8yajkjay8;@   ))    o-5wigkkgiw5-o ",
"#:6wyuuyw6:#     ^(    .=<9yipuy9<=.   __    .&>8rippir8>&. ",
"*<wuahhauw<*o           O=<8www8<=O           o*,8wrrw8,*o  ",
";8rakcckar8;+            O=;<<<;=O             o*:<66<:*o   ",
":8yfznnzfy8:+             .@&&&@.               .@*--*@.    ",
":8talvvlat8:+                                     ....      ",
"-5wigkkgiw5-o                                               ",
"&>8rippir8>&.                                               ",
"o*,8wrrw8,*o                                                "
};
