/* XPM */
static char *_dc3376047e349d2f5d680735d250eafHSvq5RPmAfFG7lin[] = {
/* columns rows colors chars-per-pixel */
"30 30 136 2 ",
"   c #F96B0C",
".  c #F46B15",
"X  c #F96C13",
"o  c #F26C1C",
"O  c #F96D1B",
"+  c #DF6B2D",
"@  c #C76D3E",
"#  c #CC6C3B",
"$  c #D56C35",
"%  c #DC6D34",
"&  c #D46E3A",
"*  c #DE703B",
"=  c #E76B26",
"-  c #EA6C24",
";  c #E36C2B",
":  c #EA6E2A",
">  c #F26D22",
",  c #F96F22",
"<  c #F67027",
"1  c #F97027",
"2  c #F4702C",
"3  c #F97129",
"4  c #E36E33",
"5  c #EB7135",
"6  c #E97238",
"7  c #F27132",
"8  c #F97434",
"9  c #F6773F",
"0  c #F9763A",
"q  c #BF6C40",
"w  c #D37243",
"e  c #DF7545",
"r  c #DF784C",
"t  c #E37544",
"y  c #E57A4E",
"u  c #F97A45",
"i  c #F97C48",
"p  c #E77B50",
"a  c #F37E50",
"s  c #DD805B",
"d  c #F98051",
"f  c #F9865C",
"g  c #D08669",
"h  c #E48C6C",
"j  c #F98760",
"k  c #F48A65",
"l  c #F98B66",
"z  c #F38F6F",
"x  c #FA8D6A",
"c  c #FA906F",
"v  c #E08F73",
"b  c #EA9378",
"n  c #ED987D",
"m  c #F59374",
"M  c #FA9474",
"N  c #FA977A",
"B  c #F49A7F",
"V  c #FA987B",
"C  c #B29484",
"Z  c #B49788",
"A  c #DC9983",
"S  c #E39A84",
"D  c #ED9B84",
"F  c #E79F89",
"G  c #EB9F89",
"H  c #DCA08D",
"J  c #D4AC9F",
"K  c #FAA086",
"L  c #F6A38C",
"P  c #FAA48C",
"I  c #EBA895",
"U  c #EBAF9E",
"Y  c #F5A994",
"T  c #FAA893",
"R  c #FBB19E",
"E  c #CCBBB2",
"W  c #EDB2A3",
"Q  c #EDBAAD",
"!  c #F8B7A7",
"~  c #F0B6A8",
"^  c #FABCAD",
"/  c #E9BFB3",
"(  c #F4BFB2",
")  c #D3C5BE",
"_  c #E0C3B9",
"`  c #EFC6BC",
"'  c #F5C1B5",
"]  c #FBC1B3",
"[  c #FCC6BA",
"{  c #D5C7C1",
"}  c #DCC7C0",
"|  c #D6C9C3",
" . c #D9CBC5",
".. c #DBCEC9",
"X. c #DDD3CE",
"o. c #DFD5D0",
"O. c #E4CDC6",
"+. c #E8C8C0",
"@. c #E6CFC8",
"#. c #E2D3CD",
"$. c #ECD0C9",
"%. c #F5D1C9",
"&. c #FDD5CD",
"*. c #E1D6D1",
"=. c #EAD7D3",
"-. c #E4DAD6",
";. c #ECD9D4",
":. c #E5DCD9",
">. c #FDDCD6",
",. c #F4DFD9",
"<. c #FBDFD9",
"1. c #E7E0DD",
"2. c #EBE2DE",
"3. c #F4E2DD",
"4. c #FDE2DD",
"5. c #EBE4E2",
"6. c #EEEAE7",
"7. c #EFEAE8",
"8. c #F1E6E2",
"9. c #FEE7E3",
"0. c #F7E9E6",
"q. c #FEE9E5",
"w. c #F3EEEC",
"e. c #FEECE9",
"r. c #FEF1EE",
"t. c #F7F4F3",
"y. c #F7F5F4",
"u. c #F9F2F0",
"i. c #F8F4F3",
"p. c #FEF4F2",
"a. c #F9F7F6",
"s. c #FEF5F4",
"d. c #F9F8F7",
"f. c #FFF8F7",
"g. c #FCFBFB",
"h. c white",
/* pixels */
"h.h.h.h.h.h.h.h.h.h.h.h.h.h.h.h.h.h.h.h.h.h.h.h.h.h.h.h.h.h.",
"h.h.h.h.h.h.h.h.h.h.h.h.h.h.h.h.h.h.h.h.h.h.h.h.h.h.h.h.h.h.",
"h.h.h.h.h.h.h.h.h.h.h.h.h.h.h.h.h.h.h.h.h.h.h.h.h.h.h.h.h.h.",
"h.d.h.h.y.y.h.d.h.h.h.h.h.h.h.h.h.h.h.h.h.h.h.h.h.h.h.h.h.h.",
"h.5.d.h.y.y.h.5.d.h.h.h.h.h.h.h.h.h.h.h.h.h.h.h.h.h.h.h.h.h.",
"h.h.h.h.h.d.5.h.h.h.X.6.h.h.h.h.h.h.h.h.h.h.h.h.h.h.h.h.h.h.",
"a.| h.h.6.a.d.h.h.h.h.6.-.h.h.h.h.h.h.h.h.h.h.h.h.h.h.h.h.h.",
"h.*.5.g.5.Z 2.h.h.h.h.h.a.h.h.h.h.h.h.h.h.h.h.h.h.h.h.h.h.h.",
"h.h.5.5.a.d.o.i.*.#.*.s.=.w.h.h.h.h.h.h.h.h.h.h.h.h.h.h.h.h.",
"-.5.w.7. .} O.,.` Q ~ Y S ( 4.#.5.g.a.h.h.h.h.h.h.h.h.h.h.h.",
"a.a.s.3.' G g m f d e % 4 i M Y W [ _ 3.p.g.h.h.h.h.h.h.h.h.",
"g.4.U b u 1 & @ % 2 1 O & 7 2 2 8 8 k D T / =.t.h.h.h.h.h.h.",
"+.v w % o o : = =   X X o > - = +   X O O p F %.p.h.h.h.h.h.",
"L 2 2 .   + + + + - -     - $ o - % ; o X X 2 x ] e.h.h.h.h.",
"z 7 X - - .   o o o ; o O   ; o   = ; o   . q 7 a R e.h.h.h.",
"H t O # # =   + + % ; = > o             o o ; 2 * r ' u.h.h.",
"9.K 6 2 , O     X o = = + ; . $ $ - - . o o ; o , O P =.d.h.",
"g.4.S y 1 O % = o         +     + # $ .     ; o X , V 9.h.h.",
"g...;.] c 3 & & % 1 & % o     $ -   + .   = :   X 1 K q.h.h.",
"w.| o.8.>.A s < X o O % ; > O # & > O X X = : X X l &.f.h.h.",
"o.) g.h.h.0.J n 0 & = o o 1 8 6 * * 1 O 1 # ; > 9 W s.h.h.h.",
"a.o.{ C o.h...@.^ j 8 * $ , 1 1 % & 4 o O 5 t k ^ ,.h.h.h.h.",
"h.h.a.:.X.w.) 5.2.>.] ! D N M M m h h B L I Q <.p.h.h.h.h.h.",
"h.h.h.h.a.w.t.h.*.5.g.f.r.9.4.4.$.<.9.r.8.2.s.h.h.h.h.h.h.h.",
"h.h.h.h.h.h.h.h.h.h.o.5.d.h.h.h.2.2.h.h.a.h.h.h.h.h.h.h.h.h.",
"h.h.h.h.h.h.h.h.h.h.o. .-.h.E y.h.w.g.h...-.6.h.h.h.h.h.h.h.",
"h.h.h.h.h.h.h.h.h.h.h.h.a.h.1.y.h.w.g.h.g.g.h.h.h.h.h.h.h.h.",
"h.h.h.h.h.h.h.h.h.h.h.h.h.h.h.h.h.h.h.h.h.h.h.h.h.h.h.h.h.h.",
"h.h.h.h.h.h.h.h.h.h.h.h.h.h.h.h.h.h.h.h.h.h.h.h.h.h.h.h.h.h.",
"h.h.h.h.h.h.h.h.h.h.h.h.h.h.h.h.h.h.h.h.h.h.h.h.h.h.h.h.h.h."
};
