/* XPM */
static char *b15fe771222047c1bae39c552e0bfee5oJlDmY3J73NUGusj[] = {
/* columns rows colors chars-per-pixel */
"30 30 188 2 ",
"   c #1F1818",
".  c #241B1B",
"X  c #281E1D",
"o  c #2B201F",
"O  c #38241F",
"+  c #2E2423",
"@  c #2D2529",
"#  c #312625",
"$  c #382724",
"%  c #332827",
"&  c #302729",
"*  c #342A2A",
"=  c #3A2D2C",
"-  c #342D31",
";  c #382E30",
":  c #343237",
">  c #3C3233",
",  c #3C363B",
"<  c #3D393C",
"1  c #462D28",
"2  c #44312D",
"3  c #49342E",
"4  c #54362C",
"5  c #473837",
"6  c #4F3B35",
"7  c #573B33",
"8  c #683D31",
"9  c #4A423F",
"0  c #5C423C",
"q  c #664135",
"w  c #62443C",
"e  c #6A473C",
"r  c #72493C",
"t  c #7C4A3B",
"y  c #2D2E42",
"u  c #3D3C48",
"i  c #423E43",
"p  c #413F4A",
"a  c #4B4444",
"s  c #4F4848",
"d  c #534B46",
"f  c #564947",
"g  c #534C4A",
"h  c #5A524D",
"j  c #454553",
"k  c #555054",
"l  c #5C5351",
"z  c #5A565A",
"x  c #5D595D",
"c  c #684B44",
"v  c #6B4C45",
"b  c #734D43",
"n  c #7B4E44",
"m  c #68514B",
"M  c #7B5145",
"N  c #73544C",
"B  c #785548",
"V  c #7C544A",
"C  c #605752",
"Z  c #6B5752",
"A  c #625A56",
"S  c #655D5B",
"D  c #6A5E5C",
"F  c #725751",
"G  c #755A56",
"H  c #7A5E5B",
"J  c #67615C",
"K  c #6A625E",
"L  c #695F64",
"P  c #596268",
"I  c #636167",
"U  c #6D6562",
"Y  c #6D696A",
"T  c #746461",
"R  c #726A66",
"E  c #7B6A65",
"W  c #756E6B",
"Q  c #7A6E68",
"!  c #76726B",
"~  c #7B716C",
"^  c #766E77",
"/  c #7B7473",
"(  c #767678",
")  c #7C7979",
"_  c #825344",
"`  c #8A5344",
"'  c #84564A",
"]  c #8A5649",
"[  c #865A4C",
"{  c #8C5A4C",
"}  c #925B4B",
"|  c #9A5F4E",
" . c #835C52",
".. c #8D5D51",
"X. c #935F51",
"o. c #876557",
"O. c #966254",
"+. c #9B6253",
"@. c #97725E",
"#. c #A26653",
"$. c #A76956",
"%. c #A86855",
"&. c #AD6C59",
"*. c #B06E59",
"=. c #AB705E",
"-. c #B9735B",
";. c #81746D",
":. c #817772",
">. c #857A74",
",. c #897C73",
"<. c #847D7A",
"1. c #937E74",
"2. c #A96B61",
"3. c #BA7067",
"4. c #CD7E72",
"5. c #85817D",
"6. c #8E827C",
"7. c #978579",
"8. c #92867C",
"9. c #AE8165",
"0. c #B38F7A",
"q. c #BA937C",
"w. c #C18A79",
"e. c #CB9176",
"r. c #867E83",
"t. c #868382",
"y. c #8C8887",
"u. c #89868B",
"i. c #968784",
"p. c #8F9B8B",
"a. c #94918E",
"s. c #938D91",
"d. c #949393",
"f. c #9C9896",
"g. c #9C9B99",
"h. c #A08D80",
"j. c #A4938A",
"k. c #A8958B",
"l. c #B79785",
"z. c #AD9893",
"x. c #A19E9B",
"c. c #B19D91",
"v. c #A5A19E",
"b. c #B7A398",
"n. c #A49CA0",
"m. c #A3A2A4",
"M. c #ACAAA5",
"N. c #ADADAC",
"B. c #B3AEAA",
"V. c #ABB3AE",
"C. c #B6AFB1",
"Z. c #ABB1B6",
"A. c #B9B7B4",
"S. c #BDBEBC",
"D. c #C09E8A",
"F. c #C2A18F",
"G. c #DAAA92",
"H. c #C8B5A9",
"J. c #C1BEBD",
"K. c #BEC8BC",
"L. c #C1C0BD",
"P. c #A9B6C6",
"I. c #B5BAC0",
"U. c #B9C3CE",
"Y. c #C5C5C3",
"T. c #C9C6C5",
"R. c #C7C9C8",
"E. c #CECCCB",
"W. c #D5D1CE",
"Q. c #D4D2D2",
"!. c #DAD7D6",
"~. c #DBD9D7",
"^. c #DDDCDB",
"/. c #E0DEDD",
"(. c #E2E1DF",
"). c #DDDFE0",
"_. c #E2DFE0",
"`. c #DFE1E1",
"'. c #E4E4E5",
"]. c #E8E6E4",
"[. c #E9E8E7",
"{. c #E7E9E9",
"}. c #EAEAEA",
"|. c #ECECEC",
" X c #F2EFEB",
".X c #F3F3F2",
"XX c #F8F8F7",
"oX c #FFFFFE",
/* pixels */
".X.X|.|.|.}.].].|.}.}.].'./././.^./.^.~.~.~.!.W.J.m.s.t.<./ ",
"^.^.T.!.Q.E.W.].'._.~.!.Q.E.E.E.E.E.E.E.E.E.E.T.A.m.d.u.<.) ",
"(.'.'.].].].oX].|.|.|.}.{.].].].].].].].'.'.'.^.R.S.Z.M.N.g.",
"B.A.A.M.M.B.~.[.A.J.L.L.L.L.S.S.~.'.'.'.'.`.).Y.v.d.t.5.;.! ",
"7.,.,.;.Q Q 6. X:.K K D S D K ) ) 5.5.5.5.5.<.J h h d m d d ",
"h.7.1.,.;.Q Q ~ T l K A h a = = 9 l A A A A A C h h 9 g h h ",
"c.j.8.8.,.;.~ W R l U f = $ % % + # d S J K D A A C a h l h ",
"b.z.k.i.6.,.:.<.V.N.f 0 r _ b r r w 6 g U U K S D U h S S C ",
"H.b.z.j.i.6.<.y.K.p.w M ] X.O.} ' M b 5 Y R R R R W t.W R K ",
".X.X.X.X.X.X.X|.|./ v M ] +.$.#.} ' B 0 y.'.(.^.a.<.W W K K ",
"}.}.{.].'.'.'.'.].l m M { #.*.*.#.{ B F Y ^.^.^.x.y.R U Q ,.",
"oXoXoXoXoXoXoXoXXXL G B M #.-.-.+.V N E ^ oXoXoXS.f.U K ~ 6.",
"oXoXoXoXoXoXoXoXoX/ Z b n t } +._ n V T u.oXoXoXY.x.R K ~ 8.",
"oXoXoXoXoXoXoXoXoXr.G c v V ` } ' m N H s.oXoXoXY.x.~ R ;.8.",
"oXoXoXoXoXoXoXoXoXi.H  .X.] } | } +...H i.oXoXoXY.v.W W >.8.",
"oXoXoXoXoXoXoXoXoXC.H O.&.] %.&.} $.=.o.n.oXoXoXY.v.:.:.,.8.",
"oXoXoXoXoXoXoXoXoXQ.D V ] ` ` #.' ' [ F B.oXoXoXY.v.<.:.,.8.",
"oXoXoXoX^.s..XoXoXXXL v b n } +...b b 0 /.oXoXoXT.v.<.:.,.8.",
"oXoXoX'./.z..XoXoX.XI 5 ' +.e.G.w...c a .XoXoXoXY.v.>.:.,.8.",
"oXoX{.U.P.Z.XXXXS.z < ; 0 } 3.4.2.V = * N.oXoXoXY.x.:./ >.8.",
"oXoXm.( P P I.N.a , - = = M _ _ ..7 & + & t.XXoXY.x.~ ~ :.8.",
"~.C., , x k ^ k > * % 4 + 3 e b e = 5 $ + * d..XS.g.~ R Q 8.",
"r.j - : x S a ; = * % 4 4 # + + + 2 e O # * > x N.f.R *   R ",
"i i x s > * * * + * # 1 8 4 1 1 3 M q o * * + # g S k .   a ",
"@ a 5 * * * @ + # + # #  ._ t t _ [ O + + + + + + + , j y u ",
"i * * * * & @ + + # * # Z F.l.l.0.o.o + + + + # + + + + p I ",
"> * * * * % + # # X + # $ 1.D.q.9.4 # # + X * + + + + + + u ",
"* # # * * # + # # # + X o + 6 @.b * # + + + * + + # % % + + ",
"# + # % * # + # % # # o X . X X + + + + + + % + % # % % # + ",
"# + X # % + + % % # # + o X X . + o + # + # # + % + % # # + "
};
