/* XPM */
static char *a5cf358863484b7b9e4f0e4d11c5d6fax6SL2ONEipr19dQT[] = {
/* columns rows colors chars-per-pixel */
"30 30 160 2 ",
"   c #020200",
".  c #0A0900",
"X  c #1E1C00",
"o  c #201D01",
"O  c #272401",
"+  c #2A2701",
"@  c #2E2A01",
"#  c #312D01",
"$  c #454003",
"%  c #494403",
"&  c #4F4903",
"*  c #514A03",
"=  c #575004",
"-  c #5A5405",
";  c #5F5804",
":  c #5B5418",
">  c #645D04",
",  c #675F09",
"<  c #655E10",
"1  c #6D6506",
"2  c #6D650C",
"3  c #766D06",
"4  c #756C0B",
"5  c #786F0E",
"6  c #7B7307",
"7  c #7B7209",
"8  c #6B631E",
"9  c #746C1B",
"0  c #7E7514",
"q  c #6D6626",
"w  c #746C29",
"e  c #7C7423",
"r  c #78702B",
"t  c #6C6639",
"y  c #777140",
"u  c #6F6B51",
"i  c #F9130A",
"p  c #FA1715",
"a  c #F91C16",
"s  c #FB2A29",
"d  c #807709",
"f  c #847A0A",
"g  c #887E0A",
"h  c #947908",
"j  c #847B13",
"k  c #80771F",
"l  c #847B1A",
"z  c #BD6F0C",
"x  c #AA6414",
"c  c #BD7017",
"v  c #847B24",
"b  c #877E28",
"n  c #877E30",
"m  c #DC5A0D",
"M  c #EA460C",
"N  c #E74A0C",
"B  c #E74C16",
"V  c #C5790B",
"C  c #C57911",
"Z  c #837C42",
"A  c #877F49",
"S  c #FC5959",
"D  c #8D830A",
"F  c #91870A",
"G  c #968B0B",
"H  c #988D0B",
"J  c #938913",
"K  c #988D12",
"L  c #938818",
"P  c #998E1A",
"I  c #AC8D0B",
"U  c #AD8E16",
"Y  c #8D8325",
"T  c #8E842D",
"R  c #9A9026",
"E  c #9B902A",
"W  c #8C843D",
"Q  c #958C32",
"!  c #968D39",
"~  c #9C9132",
"^  c #9C923C",
"/  c #9E9444",
"(  c #888150",
")  c #9F9652",
"_  c #A09643",
"`  c #A69C57",
"'  c #A69E5B",
"]  c #A89F5F",
"[  c #979167",
"{  c #9F986E",
"}  c #898679",
"|  c #9E9974",
" . c #A19967",
".. c #A19B77",
"X. c #A6A076",
"o. c #AEA770",
"O. c #A7A27A",
"+. c #ADA77D",
"@. c #AFA87C",
"#. c #B3AD7E",
"$. c #9B9885",
"%. c #9D9D9C",
"&. c #A09D8F",
"*. c #ACA687",
"=. c #AEA883",
"-. c #A4A18E",
";. c #ADA98D",
":. c #B4AD81",
">. c #B5AF89",
",. c #B8B186",
"<. c #B6B08B",
"1. c #B9B38A",
"2. c #A6A495",
"3. c #ADAA97",
"4. c #B1AE99",
"5. c #BDB690",
"6. c #BDB892",
"7. c #A5A5A4",
"8. c #A8A7A4",
"9. c #AFADA4",
"0. c #ACACAC",
"q. c #BFBCA5",
"w. c #BCB9A8",
"e. c #B4B4B4",
"r. c #BBBAB4",
"t. c #BBBBBB",
"y. c #FD9B9B",
"u. c #C0BB97",
"i. c #C0BB99",
"p. c #C3BEA5",
"a. c #C6C3AD",
"s. c #CAC5AB",
"d. c #C5C2B7",
"f. c #CBC6B3",
"g. c #CECAB3",
"h. c #C2C1BE",
"j. c #D1CDB6",
"k. c #C4C4C4",
"l. c #C8C7C4",
"z. c #CCCBC5",
"x. c #CBCBCB",
"c. c #D0CFC9",
"v. c #D6D3C0",
"b. c #D8D5C5",
"n. c #D1D0CF",
"m. c #DFDDCF",
"M. c #D4D4D4",
"N. c #DBDAD2",
"B. c #DDDDDC",
"V. c #E4E1D5",
"C. c #E4E2DB",
"Z. c #E5E5E5",
"A. c #E8E7E1",
"S. c #EDECE5",
"D. c #ECECEC",
"F. c #F1F1EE",
"G. c #F5F5F4",
"H. c #F8F7F5",
"J. c #F9F9F7",
"K. c #FFFFFF",
/* pixels */
"K.K.K.K.K.K.K.K.K.K.K.K.K.G.M.Z.M.x.e.t.K.Z.e.K.Z.K.K.K.K.K.",
"K.K.K.K.K.K.K.K.K.K.K.K.G.x.M.x.t.t.l.B.Z.l.K.l.Z.G.Z.M.Z.l.",
"K.K.K.K.K.K.K.K.K.K.K.Z.Z.l.Z.t.l.Z.t.B.e.Z.Z.K.Z.M.n.k.Z.K.",
"K.K.K.K.K.K.K.K.K.K.K.l.k.M.e.t.B.t.B.M.G.l.Z.l.Z.M.Z.K.G.Z.",
"K.K.K.K.K.K.K.K.K.K.e.7.l.M.n.x.t.B.e.G.M.K.Z.K.7.G.M.l.x.n.",
"K.K.K.K.K.K.K.K.G.A.r.4.s.s.j.a.f.b.N.Z.C.B.Z.t.D.l.B.Z.M.Z.",
"K.K.K.K.K.K.G.d.<.] W 8 k e w v ^ ) | a.b.N.x.D.M.M.Z.Z.G.G.",
"K.K.K.K.K.C.>.Z P 6 6 7 f H H 3 0 0 l ! W [ z.Z.l.M.M.l.M.M.",
"K.K.K.K.C.o.L 6 g h V C U K K K K z m c 5 0  .$.h.t.x.M.M.M.",
"K.K.K.C.o.P g g I M s p M I H H z a s i x Y e ~ #.N.D.D.D.G.",
"K.K.H.i.P H H K V s y.S p V H H B S y.s N H l 3 Q -.h.l.x.G.",
"K.K.G.:.K H H H V s y.S p V H H B S y.s N H , J v ..c.x.M.M.",
"K.K.G.1.P H H H I M s p M I H H z a s i z H 4 % 1 n w.Z.G.G.",
"K.K.G.6.P K K H H I V V I H H H H z m z H H 6 = 6 < *.M.%.e.",
"K.K.J.s.E H H G G G G G G G G G H H H H H H g 7 1 - A 9.l.G.",
"K.K.K.V./ d 7 6 1 1 ; * & & * > F H H H H H g g f $ r &.D.M.",
"K.K.K.S.t .                   . $ G H H H H D D f @ : $.Z.B.",
"K.K.K.F.u .   . . X o O # @ X + 1 G H H H H G f j = 9 q.Z.t.",
"K.K.K.J.g.T f d d f f F F F D f G H H H H H H F 7 g 8 3.k.l.",
"K.K.K.K.V.` K H G G G H H H H G H H H H H H H D 1 7 q } Z.K.",
"K.K.K.K.F.5.R K H H H H H H H H H H H H H H 6 D 6 7 w 2.Z.K.",
"K.K.K.K.K.C.o.P K H H H H H H H H H H H H H g f 7 J y 9.M.Z.",
"K.K.K.K.K.J.m.' K K H H H H H H H H H H 3 H g 6 2 E *.C.h.t.",
"K.K.K.K.K.K.H.s.^ P K H H H H H H H H H g g H 9 ( ;.N.J.K.Z.",
"K.K.K.K.K.K.K.S.u._ R K H K H H H H H H g f 6 Y ;.r.t.e.x.K.",
"K.K.K.K.K.K.K.K.S.g.#.' ^ ~ P K K K K K J d b @.N.e.G.n.x.l.",
"K.K.K.K.K.K.K.K.K.G.S.V.v.s.=.O.+.,.:.:.X.{ p.z.B.D.M.Z.l.K.",
"K.K.K.K.K.K.K.K.K.K.K.K.J.F.8.k.l.D.t.C.F.l.t.D.l.M.K.M.l.7.",
"K.K.K.K.K.K.K.K.K.K.K.K.K.K.0.l.K.l.t.l.l.Z.K.t.l.Z.M.Z.D.Z.",
"K.K.K.K.K.K.K.K.K.K.K.K.K.K.K.x.t.G.x.0.e.x.x.Z.Z.x.D.Z.M.Z."
};
