/* XPM */
static char *_24e6de732484e30993120e469cd34ffhsY34V2Ozr11P2gm[] = {
/* columns rows colors chars-per-pixel */
"30 30 167 2 ",
"   c #040402",
".  c #080707",
"X  c #0A0904",
"o  c #0E0E0D",
"O  c #100E01",
"+  c #141201",
"@  c #191607",
"#  c #141312",
"$  c #1A1912",
"%  c #1D1C19",
"&  c #201F15",
"*  c #201F1B",
"=  c #2E2B0A",
"-  c #353002",
";  c #282618",
":  c #363633",
">  c #423E0E",
",  c #403E35",
"<  c #494405",
"1  c #4F4906",
"2  c #645C04",
"3  c #665E0C",
"4  c #797007",
"5  c #6E6718",
"6  c #414030",
"7  c #6B642B",
"8  c #7A7120",
"9  c #6B6745",
"0  c #64635F",
"q  c #686765",
"w  c #6C6C6C",
"e  c gray47",
"r  c #FB0E08",
"t  c #F62807",
"y  c #F92208",
"u  c #F52D08",
"i  c #F33608",
"p  c #F0390D",
"a  c #80760A",
"s  c #BE770A",
"d  c #B47E0B",
"f  c #BB7A0F",
"g  c #B47F14",
"h  c #D75E09",
"j  c #EE410A",
"k  c #E64F0A",
"l  c #E2540B",
"z  c #E55010",
"x  c #E1581A",
"c  c #D7610A",
"v  c #C3740B",
"b  c #C77217",
"n  c #807D6B",
"m  c #FB5452",
"M  c #89800A",
"N  c #968B0B",
"B  c #988D0B",
"V  c #918715",
"C  c #958A12",
"Z  c #988E13",
"A  c #968B1E",
"S  c #998E1B",
"D  c #A9850C",
"F  c #A4880B",
"G  c #AE811D",
"H  c #9A8F22",
"J  c #978C2C",
"K  c #998F2B",
"L  c #9A9024",
"P  c #9B912B",
"I  c #8A8131",
"U  c #88803F",
"Y  c #978D33",
"T  c #968D3C",
"R  c #9C9233",
"E  c #9D933B",
"W  c #A78C2E",
"Q  c #8B8244",
"!  c #938A4F",
"~  c #9D9440",
"^  c #9A924E",
"/  c #968D58",
"(  c #A19744",
")  c #A2994A",
"_  c #A69D5A",
"`  c #A8A05F",
"'  c #858060",
"]  c #938B66",
"[  c #9A9468",
"{  c #858377",
"}  c #918C7F",
"|  c #A39D79",
" . c #AAA164",
".. c #ABA36D",
"X. c #AEA773",
"o. c #ACA678",
"O. c #B2AB7B",
"+. c #8D8D8C",
"@. c #908C8C",
"#. c #979280",
"$. c #959292",
"%. c #9A9696",
"&. c #9E9B9B",
"*. c #A09B8D",
"=. c #A19F94",
"-. c #A09D9C",
";. c #A8A183",
":. c #ABA68D",
">. c #AEA88F",
",. c #B3AD84",
"<. c #B1AB88",
"1. c #B9B388",
"2. c #AFAA91",
"3. c #BCB693",
"4. c #A5A2A2",
"5. c #A9A6A6",
"6. c #ACA9A6",
"7. c #ACAAAA",
"8. c #B0AEA7",
"9. c #B2AFAB",
"0. c #B5B1A4",
"q. c #BFBBA2",
"w. c #B4B1AD",
"e. c #BAB7AF",
"r. c #B5B3B3",
"t. c #B9B7B6",
"y. c #BFBDB3",
"u. c #BCBABA",
"i. c #F6908E",
"p. c #FA9998",
"a. c #C1BC9C",
"s. c #C4BFA1",
"d. c #C0BFB8",
"f. c #C7C1A4",
"g. c #C9C5AB",
"h. c #CECAB2",
"j. c #C2C1BD",
"k. c #CDCAB8",
"l. c #D2CFBB",
"z. c #C2C1C1",
"x. c #C9C6C3",
"c. c #CAC9C5",
"v. c #CDCCCB",
"b. c #D2CFC0",
"n. c #D1CFCE",
"m. c #D7D5C7",
"M. c #D8D6C5",
"N. c #D3D2CA",
"B. c #D8D6CF",
"V. c #D4D3D3",
"C. c #D8D7D7",
"Z. c #DAD9D7",
"A. c #DDDCDB",
"S. c #E0DED2",
"D. c #FDD3D3",
"F. c #E3E1D5",
"G. c #E5E3DC",
"H. c #E8E6DE",
"J. c #E4E4E3",
"K. c #EBEAE3",
"L. c #EDEDEB",
"P. c #F1EFEA",
"I. c #F1F0ED",
"U. c #F5F4F3",
"Y. c #F8F7F7",
"T. c #F9F8F6",
"R. c #FEFEFE",
/* pixels */
"R.R.R.R.R.R.T.K.j.w.9.x.c.n.-.6.4.5.%.-.z.r.$.n.U.K.5.5.U.R.",
"R.R.R.R.R.R.F.1.o.| X.O.3.3.,.<.3.b.v.4.5.u.J.V.u.u.t.n.v.R.",
"R.R.R.R.R.P.a.E P K S G b H H H H ) O.a.k.G.V.n.v.7.V.V.7.Y.",
"R.R.R.R.R.M._ E R Z F j r z b Z d d g R _ ,.>.m.Z.U.J.u.U.C.",
"R.R.R.R.U.q.R H L B v m p.u v Z f l p x W H K ..h.G.&.z.u.V.",
"R.R.R.R.r.: ' R Z B B c u h v d k D.i.j f Z S P ) ,.8.c.r.C.",
"R.R.R.R.A.  o ] S S S d d F B d k D.i.i s B B P P L ..y.u.R.",
"R.R.R.R.R.e   . U R E Z B B B d l y t u d B B B B S Y | H.R.",
"R.R.R.R.R.U.w . % [ R H B B B B B F D B B B B B B B J / l.U.",
"R.R.R.R.R.R.U.w   * I Z Z B B B B B B B B B B B B B B H 3.r.",
"R.R.R.R.R.R.R.L.q % & 8 Z Z B B B B B B B B B B B B B Y #.j.",
"R.R.R.R.R.R.R.R.J.+.#   7 ~ H B B B B B B B B B B B Z ! :.I.",
"R.R.R.R.R.R.R.R.R.R.j.    9 S B B B B B B B B B B S H R s.T.",
"R.R.R.R.R.R.R.R.R.R.L.0 $ = V B B B B B B B B B B Z P E g.L.",
"R.R.R.R.R.R.R.R.R.J.q $ = M B B B B B B B B B B B B H K *.4.",
"R.R.R.R.R.R.R.U.d.* ; O 2 N B B B B B B B B B B B B S ( h.U.",
"R.R.R.R.R.L.N.{ &   + 4 N B B B B B B B B B B B B B L _ M.T.",
"R.R.R.J.=., ;   X 1 a N B B B B B B B B B B B B B B H ,.N.n.",
"R.R.8.6 @   + 3 3 C B B B B B B B B B B B B B B B Z E g.Z.V.",
"R.U.n > < - 5 C N B B B B B B B B B B B B B B B B J } B.U.R.",
"R.U.{ Q J A K S S B B B B B B B B B B B B S S B H O.e.u.7.C.",
"R.R.L.M.f.X.( S S Z S Z B B B B B B B B Z P H Z E l.I.R.R.C.",
"R.R.R.R.U.G.h.,.` R P K S Z Z Z B B B Z Z L E ^ 3.c.&.V.L.R.",
"R.R.R.R.R.R.T.G.S.h.2.;.,. .P H S S A T R  .q.0.K.R.U.C.u.u.",
"R.R.R.R.R.R.R.v.L.U.A.w.r.S.g.3...~ T ] :.N.I.U.7.U.R.R.U.5.",
"R.R.R.R.R.R.R.R.u.v.U.U.4.5.v.j.6.0.3.k.x.u.V.C.U.&.V.C.R.R.",
"R.R.R.R.R.R.R.R.U.u.&.U.n.r.V.v.J.V.t.n.u.n.u.V.V.V.R.C.R.R.",
"R.R.R.R.R.R.R.R.R.R.U.7.t.$.v.V.R.R.v.v.u.V.C.U.7.v.R.R.R.R.",
"R.R.R.R.R.R.R.R.R.R.R.R.L.v.&.5.u.L.7.A.U.R.R.R.R.R.R.R.R.R.",
"R.R.R.R.R.R.R.R.R.R.R.R.R.R.U.v.r.@.4.%.r.U.R.R.R.R.R.R.R.R."
};
