/* XPM */
static char *_587ac29930f40c3b544f64a49377ec0Zy0wpVi8XFdFrOLg[] = {
/* columns rows colors chars-per-pixel */
"30 30 76 1 ",
"  c #010101",
". c #060606",
"X c #00020F",
"o c #090909",
"O c #0C0C0C",
"+ c #101010",
"@ c gray9",
"# c gray11",
"$ c #000727",
"% c #010827",
"& c #040B28",
"* c #020A2C",
"= c #0D122B",
"- c #141832",
"; c #1B1E34",
": c #222222",
"> c gray15",
", c #282828",
"< c #2F2F2F",
"1 c gray19",
"2 c gray21",
"3 c gray22",
"4 c #3E3E3E",
"5 c #001A58",
"6 c gray25",
"7 c #464646",
"8 c #484848",
"9 c gray31",
"0 c #4D4E57",
"q c #515151",
"w c #555555",
"e c #5B5B5B",
"r c gray37",
"t c #606060",
"y c #656565",
"u c DimGray",
"i c gray43",
"p c gray45",
"a c #777777",
"s c gray47",
"d c gray49",
"f c #4E5FB2",
"g c #7F86B6",
"h c #808080",
"j c #868686",
"k c #888888",
"l c gray55",
"z c #929292",
"x c gray59",
"c c #989898",
"v c #9D9D9D",
"b c #8087B6",
"n c #A2A2A2",
"m c gray67",
"M c #ACACAC",
"N c gray69",
"B c #B4B4B4",
"V c gray73",
"C c gray",
"Z c #8E95C6",
"A c #C3C3C3",
"S c gray77",
"D c gray79",
"F c #CDCDCD",
"G c #D0D0D0",
"H c gray83",
"J c #D8D8D8",
"K c gainsboro",
"L c #E2E2E2",
"P c #E7E7E7",
"I c #E9E9E9",
"U c #EFEFEF",
"Y c gray94",
"T c gray97",
"R c gray98",
"E c white",
/* pixels */
"EEEEEEEEEEEERRTRREEEEEEEEEEEEE",
"EEEEEEEEEEUJDNmBCFJPITEEEEEEEE",
"EEEEEEEERJj93,><279ttlSPREEEEE",
"EEEEEEEELu. %&...;0  o,wAREEEE",
"EEEEEEERV# $gb=+-fZ*    uUEEEE",
"EEEEEEERC> X55X  ** qvq.aUEEEE",
"EEEEEEEEPh+ XX   oOVmvw,nTEEEE",
"EEEEEEEERA8O opkqovhqv@sKEEEEE",
"EEEEEEEEEIz1>4dkvMq  .7SREEEEE",
"EEEEEEEEERLmh61>+ o:<yCYEEEEEE",
"EEEEEEEEEEETKMxs2O6cCLREEEEEEE",
"EEEEEEEEEETUJVxu2@tHREEEEEEEEE",
"EEEEEEEERLMxaw3<@+yJEEEEEEEEEE",
"EEEEEEEEIc313wpdw>pKEEEEEEEEEE",
"EEEEEEERJa9ixMzue<dLEEEEEEEEEE",
"EEEEEEEEUSBASc6+><cYEEEEEEEEEE",
"EEEEEEEEETGky44,18BTEEEEEEEEEE",
"EEEEEEEEERC8,+ij9wCREEEEEEEEEE",
"EEEEEEEEEEPNxlDN89VREEEEEEEEEE",
"EEEEEEEEEEETYYUv<1nTEEEEEEEEEE",
"EEEEEEEEEEEEETFy@@sPEEEEEEEEEE",
"EEEEEEEEEEEETGs1#>wDREEEEEEEEE",
"EEEEEEEEEEEUAk9ua89BTEEEEEEEEE",
"EEEEEEEEEETVw4kFFi1zUEEEEEEEEE",
"EEEEEEEEEELd:8CTId#rHREEEEEEEE",
"EEEEEEEEEUMt9cIEYc,4mYEEEEEEEE",
"EEEEEEEERJjpmPEERFy1hKEEEEEEEE",
"EEEEEEEEEYFDIEEEEYChnPEEEEEEEE",
"EEEEEEEEEERREEEEEEYLPTEEEEEEEE",
"EEEEEEEEEEEEEEEEEEEEEEEEEEEEEE"
};
