/* XPM */
static char *abd3196707fa4310dc5568013f9fdae9NaZQI1z4RdcRR20g[] = {
/* columns rows colors chars-per-pixel */
"60 60 130 2 ",
"   c #010101",
".  c #0B0503",
"X  c #0E0804",
"o  c #0B0B0B",
"O  c #100704",
"+  c #140A05",
"@  c #190D06",
"#  c #100A0A",
"$  c #1B0F09",
"%  c #11100F",
"&  c #1E110A",
"*  c #131313",
"=  c #1B1614",
"-  c #1C1C1C",
";  c #24160D",
":  c #27180E",
">  c #28190F",
",  c #251811",
"<  c #2C1B11",
"1  c #311F13",
"2  c #342115",
"3  c #382417",
"4  c #342319",
"5  c #3A2618",
"6  c #3E281B",
"7  c #232323",
"8  c #2A2524",
"9  c #2C2C2C",
"0  c #392A22",
"q  c #372E2A",
"w  c #353434",
"e  c #3B3634",
"r  c #3B3B3B",
"t  c #442C1D",
"y  c #482F1F",
"u  c #482F20",
"i  c #4D3323",
"p  c #523625",
"a  c #563927",
"s  c #5B3D2A",
"d  c #5F402C",
"f  c #62422E",
"g  c #674530",
"h  c #6E4A34",
"j  c #724E36",
"k  c #775139",
"l  c #7C543B",
"z  c #424242",
"x  c #4D4845",
"c  c #4B4B4B",
"v  c #504E4D",
"b  c #5F4B4B",
"n  c #545454",
"m  c #5D5654",
"M  c #5C5C5C",
"N  c #675656",
"B  c #67605E",
"V  c #646464",
"C  c #6C6765",
"Z  c #6C6C6C",
"A  c #706E6D",
"S  c #757474",
"D  c #7C7C7C",
"F  c #FB0C0C",
"G  c #FB1C1C",
"H  c #FB2727",
"J  c #FB3535",
"K  c #80573D",
"L  c #83593F",
"P  c #865B41",
"I  c #8A5E43",
"U  c #8E6145",
"Y  c #916346",
"T  c #956649",
"R  c #97684A",
"E  c #9C6B4C",
"W  c #08F95E",
"Q  c #3BF96B",
"!  c #46FA71",
"~  c #4FF875",
"^  c #5AFA7C",
"/  c #60F77F",
"(  c #2617F1",
")  c #2718F1",
"_  c #4E4CC6",
"`  c #74F78B",
"'  c #848484",
"]  c #8C8C8C",
"[  c #939393",
"{  c #9B9B9B",
"}  c #9999A6",
"|  c #A4A4A4",
" . c #ADACAC",
".. c #B3B3B3",
"X. c #BAB6B6",
"o. c #BBBBBB",
"O. c #84F697",
"+. c #8BF99D",
"@. c #98D6A1",
"#. c #9EF4AB",
"$. c #AEEAB7",
"%. c #B3E8BA",
"&. c #B3F4BB",
"*. c #B9B9C3",
"=. c #B4B3EF",
"-. c #C3C3C3",
";. c #CBCBCB",
":. c #CDCDCD",
">. c #C1D0C3",
",. c #C8DFCB",
"<. c #D2D2D2",
"1. c #D5D5D5",
"2. c #DADADA",
"3. c #DFDFDF",
"4. c #C4F0CA",
"5. c #C4FDCB",
"6. c #D1E4D4",
"7. c #D4EDD7",
"8. c #E4E4E4",
"9. c #E6E6E6",
"0. c #E2EAE3",
"q. c #EAEAEA",
"w. c #EDEDED",
"e. c #F2F2F2",
"r. c #F6F6F6",
"t. c #F5FEF7",
"y. c #F9F9F9",
"u. c #FEF8F8",
"i. c gray99",
"p. c white",
/* pixels */
"  : i j U R E E E E R U j i :         - M | 1.e.p.u.q.p.p.p.p.p.w.u.p.r.3. .V -   . & 3 i f j k k j f i 3 ; .           ",
". 2 s L T E E E E E E T L f 2 .       r D ;.e.p.u. .b q.p.p.p.w.N X.u.p.r.:.' r   + > t s j L I I L j s t < +           ",
"X 5 g I R E E E E E E R I g 5 X       z [ 2.p.p.u. .b q.p.p.p.w.N X.u.p.p.3.[ z   @ 1 i g l U T T U l g i 2 @           ",
"X 5 g I R E E E E E E R I g 5 X       z ] 1.y.p.p.u.q.p.p.p.p.p.w.u.p.p.y.1.] z   @ 2 i g K Y R R Y K g i 2 @         + ",
". 2 s L T E E E E E E T L s 2 .       9 S o.w.p.p.p.p.F p.p.p.G p.p.p.y.q.X.S 8   @ 1 i f l I T T I l f i 1 @       + : ",
"  : i j U R E E E E R U j i :         o z ] -.9.r.y.p.p.H H J p.y.r.q.2.X.' z o   O : 6 a h l P P l h a 6 : O     . : 5 ",
"  + 5 s l U R R R T U l s 5 +           * z D { X.<.w.y.p.p.p.p.w.;. .] Z r *       & 2 t s g h h g s t 2 &       @ < u ",
"    $ 5 s j L I I L j s 5 $               o 9 c M ' ;.r.p.p.p.p.w...V w 7 o         . & 2 t i a a i t 2 & .       & 5 a ",
"      $ 5 i s g g s i 5 $                       o V -.r.p.p.p.p.e...M o               . & < 2 5 5 2 < & .         & 5 a ",
"        + : 2 5 5 2 : +                         * S ;.y.p.p.p.p.e.X.M o                   + $ & & $ +             & 5 a ",
"            X # # .                             8 D :.r.p.p.p.p.w. .n o                                           @ < u ",
"        o 8 z z r -                     o - 9 z n ] ;.r.p.p.p.y.9.| Z M M M c w *                 * w z z w *     . : 5 ",
"      * r Z ] [ ' V 9                 * r V ' [ | X.,.O.^ W W W 6.-.X.X.X...| ' V w o           7 n D ] ] D n 7     + : ",
"    o r D X.1.3.<...Z -             o z D  .:.3.9.` W ~ W Q Q W Q W W W W O.9.<. .' z *       * n { -.2.2.-.{ n *     + ",
"@   - V ..9.y.p.y.q...M o         * z ' -.9.W W W W W W W W W W W W W W W W W W 9.-.] r o     r ] <.e.y.y.e.:.' r       ",
": X 9 D :.y.p.p.p.p.9.| w       7 n ] -.4.W W W W W W W W W W W W W W W W W W W W 0.X.Z 8   * V -.e.p.p.p.p.q.| n       ",
"2 @ 9 ] 2.p.p.p.p.p.y.1.' w o * c ] -.#.W W W W W W W W W W W W W W W W W W W W W W 3.{ V n Z ..q.p.p.p.p.p.e...M o     ",
"3 $ 7 ' 2.p.p.p.p.p.p.e.:.] M z S o.&.W W W W W W W W W W W W W W W W W W W W W W W O.;. ...>.W y.p.p.p.p.p.r.X.M       ",
"3 @ % Z ;.y.p.p.p.p.p.p.e.%.@.| ..3.W W W W W W W W W W W W W W W W W W W W W W W W W 7.q./ W ! t.p.p.p.p.p.w. .z       ",
"2 @   z | q.p.p.p.p.p.p.p.+.&.` W W W W W W W W W W W W W W W W W W W W W W W W W W W W W W W W t.p.p.p.p.p.3.] 9       ",
": .   - Z -.e.p.p.p.p.p.t.W W W W W W W W W W W W W W W W W W W W W W W W W W W W W W W W W W W t.p.p.p.p.w...n o       ",
"@       9 ' <.e.p.p.p.p.p.W W W W W W W W W W W W W W W W W W W W W W W W W W W W W W W W W W W 5.p.p.p.w.-.S 8 @ @ + . ",
"          w ] ;.w.p.p.p.W W W W W W W W W W W W W W W W W W W W W W W W W W W W W W W W W W W W ! p.r.9.X.A q 1 2 2 < ; ",
"            w ' -.9.y.p.W W W W W W W W W W W W W W W W W W W W W W W W W W W W W W W #.q.#.W W W $.-.{ M 0 6 i i i t 3 ",
"              9 Z  .1.W W W W W W W W W W W W W W W W W W W W W W W W W W W W W W W W 3.........| ] Z e 4 t a f g g s i ",
"  . @ & & & @ X 7 n '  .;.2.9.q.W W W W W W W W W W W W W W W W W W W W W W W W W W W 1.' n M n c 9 = < t s h l K l j f ",
"+ : < 5 5 5 < : + # 9 c Z D ] | ;.W W W W W W W W W W W W W W W W W W W W W W W W W W 2.D *         $ 2 i g l I Y U L j ",
": 5 u a a a u 5 : +     o - 8 M  .W W W W W W W W W W W W W W W W W W W W W W W W W W 9.' o         & 5 a h P T R T I k ",
"5 p f h j h f p 5 : .         z { W W W W W W W W W W W W W W W W W W W W W W W W W W 9.] *         & 5 a h P T R T I k ",
"i f l L P L l f i < @         r [ W W W W W W W W W W W W W W W W W W W W W W W W W W 4.{ 8         $ 2 i g l I Y U L j ",
"a h P Y T Y P h a 5 ;         w ] W W W W W W W W W W W W W W W W W W W W W W W W W W O.| w         + < t s h l K l j f ",
"s j I R E R I j s 6 ;         9 ' :.W W W W W W W W W W W W W W W W W W W W W W W W W O.| r           & 2 t a f g g s i ",
"s j P T R T P j s 6 ;         7 _ ( ( ( ( ( ( ( ( ( ( ( ( ( ( ( ( ( ( ( ( ( ( ( ( ( ( ( } r           . & 2 6 i i i t 3 ",
"p g l I U I l g p 2 &         o n ( ( ( ( ( ( ( ( ( ( ( ( ( ( ( ( ( ( ( ( ( ( ( ( ( ( ( ] w             . & : 1 2 2 < ; ",
"t a h j l j h a t < O           9 ( ( ( ( ( ( ( ( ( ( ( ( ( ( ( ( ( ( ( ( ( ( ( ( ( ( ( Z 7           . + @ & ; & @ + . ",
"< t p d f d p t < @             9 ( ( ( ( ( ( ( ( ( ( ( ( ( ( ( ( ( ( ( ( ( ( ( ( ( ( ( M o         + ; < 2 2 1 : & .   ",
"@ < 2 t t t 2 < @ .             9 ( ( ( ( ( ( ( ( ( ( ( ( ( ( ( ( ( ( ( ( ( ( ( ( ( ( ( M *       + : 3 t i i i 6 2 & . ",
"  + ; < < < ; +                 w ( ( ( ( ( ( ( ( ( ( ( ( ( ( ( ( ( ( ( ( ( ( ( ( ( ( ( ' r o   . : 5 i s g g f a t 2 & ",
"    . . . . .                   c ( ( ( ( ( ( ( ( ( ( ( ( ( ( ( ( ( ( ( ( ( ( ( ( ( ( ( ( M -   $ 2 i f j l K l h s t < ",
"                              o V ( ( ( ( ( ( ( ( ( ( ( ( ( ( ( ( ( ( ( ( ( ( ( ( ( ( ( ( S 9 X : 6 a j L U Y I l g i 2 ",
"                              7 D ( ( ( ( ( ( ( [ [  .-.;.;.o. .{ ' D S S ] ( ( ( ( ( ( ( ' w + < t f k I T R T P h a 5 ",
"                              9 ' ( ( ( ( ( ( ( Z 9 n V S Z M c w 9 - o * Z o.( ( ( ( ( ( ] w + < t f k I T R T P h a 5 ",
"  . . . . .                   w ] ( ( ( ( ( ( ( Z o o - - - o           o V -.( ( ( ( ( ( ] w X : 6 a j L U Y I l g i 2 ",
"+ & > < < ; @ .               w ] ( ( ( ( ( ( ( V o       X + @ @ + .   o V -.( ( ( ( ( ( ] w . $ 2 i f j l K l h s t < ",
"< 2 t t t 5 1 & .             w ] ( ( ( ( ( ( ( Z o     @ ; < 2 2 < ; @ o V -.( ( ( ) ) ( ] w   . : 5 i s g g f a t 2 & ",
"t p s f d a t 2 & .           9 ' ( ( ( ( ( ( ( Z o   @ < 5 y i i y 5 < & V -.( ( ( ) ) ( ] w     + : 3 t i i i 6 2 & . ",
"a g j l k h s t 1 @           7 D ( ( ( ( ( ( ( Z o @ < t p f g g f a t < C -.( ( ( ) ) ( ] w       + ; < 2 2 1 : & .   ",
"f l P U I K h a 5 ; .         * S ( ( ( ( ( ( ( S = ; 5 p g k l l l g p 6 C -.( ( ( ) ( ( ] w         . + @ @ @ O       ",
"h L Y R T I k d t < .         o Z ( ( ( ( ( ( ( D 8 < y f k P U U P k f i C o.( ( ( ( ( ( [ w                           ",
"j P T E R U l f t < .         o Z ( ( ( ( ( ( ( ] w 2 i g l U R R U l g i C o.) ( ( ( ( ( [ r                           ",
"g K U T Y P j s t > .           V ( ( ( ( ( ( ( { z 2 i g l U R R U l g i B ..) ( ( ( ( ( | z                         @ ",
"f j K P L l g p 2 & .       o o M ( ( ( ( ( ( ( | v < y f k P U U P k f i m  .( ( ( ( ( (  .n o o o                 @ < ",
"i f g j h f a t < +   - z n V V D ( ( ( ( ( ( (  .M , 5 p g k l l k g p 5 x | ( ( ( ( ( ( -.' Z V V n z 8 o       + < t ",
"3 t p a a i 6 < @ . 9 V ' | ..*.( ( ( ( ( ( ( (  .M & < t p f g g f p t < r [ ( ( ( ( ( ( ( ( -.o...| ] V r *   . & 2 p ",
"; < 3 5 5 1 : @   - M { ;.( ( ( ( ( ( ( ( ( ( ( | n o @ < 5 y i i y 5 < $ 9 D ( ( ( ( ( ( ( ( ( ( ( ( ;.| C w o . > t s ",
". + & & & @ .     r D o.( ( ( ( ( ( ( ( ( ( ( ( ' z     @ ; < 2 2 < ; @ . - M ( ( ( ( ( ( ( ( ( ( ( ( =.-.' c - X < t f ",
"                  z ] <.( ( ( ( ( ( ( ( ( ( ( | V -       . + @ @ + .     o w ' ( ( ( ( ( ( ( ( ( ( ( ( 1.[ n - X < t d ",
"                  z ' -.( ( ( ( ( ( ( ( ( ( | Z 9                           * n { ( ( ( ( ( ( ( ( ( ( ( :.] c - . ; 5 a ",
"                  8 Z  .( ( ( ( ( ( ( ( ( ..S w                               9 Z  .( ( ( ( ( ( ( ( ( 2...S r o   @ 1 t ",
"                  o r D | -.<.2.2.2.<.-.| D r o                               o r S { o.:.1.2.2.2.<.-.| D c -     . & 2 "
};
