/* XPM */
static char *_1f7e53716c643709dbe1c5fbcea7ea7sQx9bssBQc9Hipnv[] = {
/* columns rows colors chars-per-pixel */
"30 30 81 1 ",
"  c #010101",
". c gray3",
"X c #0C0C0C",
"o c #010310",
"O c #000316",
"+ c #050819",
"@ c gray9",
"# c gray10",
"$ c gray11",
"% c #222222",
"& c gray15",
"* c gray17",
"= c #2C2C2C",
"- c #2E2E30",
"; c #24283C",
": c #323232",
"> c gray21",
", c gray23",
"< c #3E3E3E",
"1 c #001142",
"2 c #041443",
"3 c #131D46",
"4 c #0A1C53",
"5 c #0F1F53",
"6 c #172047",
"7 c #323442",
"8 c #3D3D40",
"9 c #363848",
"0 c #3A3C48",
"q c #132D7B",
"w c #393F64",
"e c #21357E",
"r c gray25",
"t c #444444",
"y c #494949",
"u c gray30",
"i c gray32",
"p c gray33",
"a c #585858",
"s c #5D5D5D",
"d c gray38",
"f c #676767",
"g c #6A6A6A",
"h c #6C6C6C",
"j c gray44",
"k c gray46",
"l c #7B7B7B",
"z c #7E7E7E",
"x c #5C67A9",
"c c #737FC3",
"v c #808080",
"b c gray52",
"n c gray54",
"m c gray55",
"M c #909090",
"N c gray58",
"B c #9B9B9B",
"V c gray62",
"C c #A2A2A2",
"Z c gray65",
"A c gray66",
"S c #AFAFAF",
"D c gray69",
"F c gray71",
"G c gray75",
"H c #C0C0C0",
"J c gray77",
"K c #CBCBCB",
"L c #CDCDCD",
"P c #D2D2D2",
"I c #D7D7D7",
"U c #DADADA",
"Y c #DFDFDF",
"T c #E2E2E2",
"R c #E6E6E6",
"E c #E9E9E9",
"W c #EEEEEE",
"Q c #F3F3F3",
"! c #F6F6F6",
"~ c #FBFBFB",
"^ c white",
/* pixels */
"^^^^^^^^^^!TSzkzmAR^^^^^^^^^^^",
"^^^^^^^^^RSk:@@X$>S!^^^^^^^^^^",
"^^^^^^^^!D832o+5;-Z!^^^^^^^^^^",
"^^^^^^^^Rv6xx1wce0S!^^^^^^^^^^",
"^^^^^^^~J<2xx1wcq7S!^^^^^^^^^^",
"^^^^^^^~F&o11oO49bY^^^^^^^^^^^",
"^^^^^^^~G> z  VigU~^^^^^^^^^^^",
"^^^^^~^^Ia.zVZv>A!^^^^^^^^^^^^",
"^^^^WIE~Wm@$Fv$lT^^~~^^^^^^^^^",
"^^^~HjCE~UnpruvP~~TGU!^^^^^^^^",
"^^^!A<iG~~TAlAT~~YNaZW^^^^^^^^",
"^^^~Ph<NT~YnpF!QLnizK!^^^^^^^^",
"^^^^QFfjVISrgJYHj:bL!^^^^^^^^^",
"^^^^^WHbtmv*ivzgubI~^^^^^^^^^^",
"^^^^^^QCrfi#$=>rMY~^^^^^^^^^^^",
"^^^^^^^YZni#%sNDT~^^^^^^^^^^^^",
"^^^^^^^^ESu,kJW!^^^^^^^^^^^^^^",
"^^^^^^^^!D<:bT^^^^^^^^^^^^^^^^",
"^^^^^^^^!S,$<S!^^^^^^^^^^^^^^^",
"^^^^^^^^Yz&<@gU~^^^^^^^^^^^^^^",
"^^^^^^^QZrfBsrBE^^^^^^^^^^^^^^",
"^^^^^^~Lh<CTDaaG!^^^^^^^^^^^^^",
"^^^^^^Ul>hP~Rm=zU~^^^^^^^^^^^^",
"^^^^^!C==BW^~Ih:bR^^^^^^^^^^^^",
"^^^^^Em&jU^^^WlXrJ~^^^^^^^^^^^",
"^^^^~InbL~^^^!DydK~^^^^^^^^^^^",
"^^^^~UBGQ^^^^^EHKW^^^^^^^^^^^^",
"^^^^^QYW~^^^^^^~~^^^^^^^^^^^^^",
"^^^^^^^^^^^^^^^^^^^^^^^^^^^^^^",
"^^^^^^^^^^^^^^^^^^^^^^^^^^^^^^"
};
