/* XPM */
static char *_61714a3b8cc4813ca253f955f1223aejofX3expAU2sYkFB[] = {
/* columns rows colors chars-per-pixel */
"30 30 109 2 ",
"   c None",
".  c #000102",
"X  c #020400",
"o  c #000107",
"O  c #000209",
"+  c gray4",
"@  c #0E0F11",
"#  c #00001F",
"$  c #050819",
"%  c #09111F",
"&  c #13161B",
"*  c gray11",
"=  c #1D1D1D",
"-  c gray12",
";  c #26251F",
":  c #000420",
">  c #000025",
",  c #05092C",
"<  c #0D1522",
"1  c #0E1826",
"2  c #081028",
"3  c #1E1E20",
"4  c #14192F",
"5  c #080C39",
"6  c #0D113E",
"7  c #141533",
"8  c #131435",
"9  c #141A3E",
"0  c #1B222D",
"q  c #1E222C",
"w  c #202022",
"e  c #252525",
"r  c #272727",
"t  c #24242A",
"y  c #282828",
"u  c #2F2F2F",
"i  c #22223F",
"p  c #21283A",
"a  c gray20",
"s  c #343434",
"d  c #353535",
"f  c #3B3736",
"g  c #37373D",
"h  c #363B3B",
"j  c #393939",
"k  c #3A3A3A",
"l  c gray23",
"z  c #3F3F3F",
"x  c #45423E",
"c  c #0C0F42",
"v  c #343B41",
"b  c #3A3A4F",
"n  c #353B51",
"m  c #3A3A53",
"M  c #30356C",
"N  c #3D4672",
"B  c gray25",
"V  c #414143",
"C  c #454142",
"Z  c #454442",
"A  c #50504A",
"S  c #534F50",
"D  c #505050",
"F  c gray32",
"G  c #515154",
"H  c #525254",
"J  c #535458",
"K  c #5A565B",
"L  c #59595B",
"P  c #5B5B5B",
"I  c gray37",
"U  c #62625F",
"Y  c #5D5E60",
"T  c #666563",
"R  c #636365",
"E  c #686868",
"W  c DimGray",
"Q  c gray42",
"!  c #6D6D6D",
"~  c #6F6E6C",
"^  c #6D6D6F",
"/  c gray43",
"(  c #74706F",
")  c #737270",
"_  c #7B7B7B",
"`  c #7C7C7C",
"'  c #5F6283",
"]  c #63678D",
"[  c #65678E",
"{  c #686B98",
"}  c #7A7EAB",
"|  c #7D80A5",
" . c #828280",
".. c #868686",
"X. c #8B8E8F",
"o. c #8D8D8D",
"O. c #90908D",
"+. c #969393",
"@. c #9F9C9C",
"#. c #A1A09E",
"$. c #9C9FA1",
"%. c gray63",
"&. c #A7A7A7",
"*. c #A6A6AA",
"=. c #ADA9A8",
"-. c #AEACAD",
";. c #C1C1BE",
":. c #CAC9C9",
">. c #D9D3D3",
/* pixels */
"                                                            ",
"                        v < 1 % 0                           ",
"                    m i , > 5 9 p                           ",
"                    8 [ { c M } n                           ",
"                  b 7 ' ] 6 N |                             ",
"                  q $ 4 2 : #                               ",
"                  h .   o O                                 ",
"                  U X                                       ",
"                    - -     &                               ",
"        ;.~ #.        G g                                   ",
"        =.f S                                               ",
"        >.( C +.        K                                   ",
"          -.T ) @.    x                                     ",
"            :...Z O. .; A                                   ",
"              $.V Y L 3 w r l                               ",
"                *.X.J @ t R                                 ",
"                    G l ~                                   ",
"                    l s                                     ",
"                    a - l                                   ",
"                  _ r V - W                                 ",
"                  l W %.L z                                 ",
"                ~ l &.    I D                               ",
"                s ~       o.y                               ",
"                u           ~ s                             ",
"                            ` + z                           ",
"                              D W                           ",
"                                                            ",
"                                                            ",
"                                                            ",
"                                                            "
};
