/* XPM */
static char *_a3753da48154b82fa4d6aa1a96a5eb3vktRhjDUdtzt6tEg[] = {
/* columns rows colors chars-per-pixel */
"30 30 86 1 ",
"  c black",
". c #000106",
"X c #020308",
"o c #0B0B0B",
"O c #0E0E0E",
"+ c #000210",
"@ c #030618",
"# c #0B0D1C",
"$ c #0F1019",
"% c gray7",
"& c #161616",
"* c #181818",
"= c gray11",
"- c #000728",
"; c #020B2F",
": c #232323",
"> c gray14",
", c #2A2A2A",
"< c #2C2C2C",
"1 c gray19",
"2 c #333337",
"3 c gray21",
"4 c gray23",
"5 c #3F3F3F",
"6 c #001142",
"7 c #081644",
"8 c #0C1945",
"9 c #161F47",
"0 c #051A52",
"q c #011954",
"w c #0C1D53",
"e c #172047",
"r c #1D2449",
"t c #434343",
"y c gray27",
"u c gray29",
"i c #4E4E4E",
"p c #515151",
"a c #565656",
"s c #5B5B5B",
"d c #5D5D5D",
"f c #626262",
"g c #656565",
"h c #6A6A6A",
"j c #6F6F6F",
"k c gray45",
"l c #767676",
"z c gray48",
"x c gray50",
"c c #3A4683",
"v c #3A54B7",
"b c #73789C",
"n c #5C67A9",
"m c #5E6AA9",
"M c #737FC3",
"N c #808080",
"B c #868686",
"V c #8B8B8B",
"C c #8E8E8E",
"Z c #939393",
"A c gray58",
"S c gray60",
"D c gray61",
"F c #A2A2A2",
"G c #A7A7A7",
"H c #AAAAAA",
"J c #AEAEAE",
"K c gray69",
"L c gray72",
"P c gray",
"I c #C3C3C3",
"U c gray77",
"Y c #C8C8C8",
"T c gray80",
"R c gray82",
"E c #D7D7D7",
"W c gray86",
"Q c #DDDDDD",
"! c gray88",
"~ c gray90",
"^ c #E9E9E9",
"/ c gray93",
"( c gray94",
") c #F4F4F4",
"_ c #FBFBFB",
"` c white",
/* pixels */
"``````````````````````````````",
"``````````````````````````````",
"``````````````````````````````",
"``````````````````````````````",
"``````````_))))_``````````````",
"````````(WIKZADLW)````````````",
"``````_!Dgi3O%&3gY_```````````",
"`````_WB29r$@qq#*Z(```````````",
"````_WB1emm70vMw*N~```````````",
"```_Rj1,8nn6;cb;%yP_``````````",
"```/B*=%+66+.--X%=A(``````````",
"```~k&,1kkp    pL1J)``````````",
"```(Hiy<4KDDxpPNNyU_``````````",
"````^UDa3>=ZGDHgzK/```````````",
"`````_^YKSxks<<BE(````````````",
"```````_)(!EC>:aVL~)``````````",
"```````````(A:>5*iVK~`````````",
"```````````/C:<a=54uP_````````",
"```````````!z:,dBSBCW_````````",
"```````````Ql,uuzFT~)`````````",
"```````````!l<zx<uL)``````````",
"``````````_Rd=NTDAW_``````````",
"``````````Qx>:hR/^)```````````",
"`````````(F<=,>N~`````````````",
"`````````!x<apo4K)````````````",
"````````)Uf5DD3,N!````````````",
"````````Wk>zWWl<tJ)```````````",
"```````)J5tK))Yg&l~```````````",
"```````_ECG~``)KalE_``````````",
"````````)^(````/UY(```````````"
};
