/* XPM */
static char *_35623c3a0e54114bf771fe5dd468a49nXioHRZqjCIOZycj[] = {
/* columns rows colors chars-per-pixel */
"30 30 105 2 ",
"   c #30495A",
".  c #354C5D",
"X  c #384E5E",
"o  c #3D5160",
"O  c #405462",
"+  c #445664",
"@  c #475866",
"#  c #495A67",
"$  c #4B5C69",
"%  c #4E5E6B",
"&  c #505F6B",
"*  c #52616D",
"=  c #55636F",
"-  c #56646F",
";  c #576571",
":  c #596672",
">  c #5A6872",
",  c #5C6974",
"<  c #616D77",
"1  c #636F79",
"2  c #646F79",
"3  c #64707A",
"4  c #68737D",
"5  c #6A757E",
"6  c #787777",
"7  c #6E7881",
"8  c #717A83",
"9  c #727B84",
"0  c #737C84",
"q  c #757E86",
"w  c #778088",
"e  c #7B838B",
"r  c #7D858D",
"t  c #81898F",
"y  c #908F8F",
"u  c #838B92",
"i  c #858C93",
"p  c #868E94",
"a  c #888F96",
"s  c #8A9197",
"d  c #8B9298",
"f  c #8C9299",
"g  c #8E959B",
"h  c #8F969C",
"j  c #91979E",
"k  c #92989E",
"l  c #949A9F",
"z  c #949AA0",
"x  c #979DA2",
"c  c #999FA4",
"v  c #9BA1A6",
"b  c #9CA1A6",
"n  c #9EA3A8",
"m  c #9FA4A9",
"M  c gray64",
"N  c #A1A6AB",
"B  c #A2A7AC",
"V  c #A3A8AC",
"C  c #A4A9AD",
"Z  c #A8ADB1",
"A  c #ABB0B4",
"S  c #ADB1B5",
"D  c #B0B0B1",
"F  c #B3B3B4",
"G  c #B2B6B9",
"H  c #B4B7BA",
"J  c #B4B8BB",
"K  c #B5B9BC",
"L  c #BEBEBF",
"P  c #BABDC0",
"I  c #BCBFC2",
"U  c #BFC3C5",
"Y  c #C1C2C2",
"T  c #C0C3C6",
"R  c #C2C5C7",
"E  c #C3C6C8",
"W  c #C4C7C9",
"Q  c #C5C8CA",
"!  c #C7C9CC",
"~  c #C8CACD",
"^  c #CBCDCF",
"/  c #CECECF",
"(  c #CBCED0",
")  c #CDCFD1",
"_  c #CFD1D3",
"`  c #CFD2D4",
"'  c #D1D3D5",
"]  c #D2D4D6",
"[  c #D5D6D6",
"{  c #D5D7D9",
"}  c #D7D8DA",
"|  c #D9DADB",
" . c #D9DADC",
".. c #DBDCDE",
"X. c #DCDDDF",
"o. c #DDDFE0",
"O. c #DFE1E2",
"+. c #E1E2E3",
"@. c #E2E3E5",
"#. c #E3E5E6",
"$. c #E4E5E6",
"%. c #E6E7E8",
"&. c #E7E8E9",
"*. c #E8E9EA",
"=. c #EFEFF0",
/* pixels */
"' y 6 6 6 6 6 } c M 6 6 6 6 6 6 &., e { 6 6 6 6 6 6 6 6 6 6 ",
"  z %./ 6 6 6 ! r | 6 6 6 6 6 6 6 } d q %.6 6 6 6 6 6 6 6 ..",
"z N v e | 6 6 Z m 6 6 6 6 6 6 6 6 6 I ;  .6 6 6 6 6 6 O.Q : ",
"6 @.k 3 $.6 6 C C 6 6 6 6 6 6 6 6 6 $.q ~ 6 6 6 Y *.^ : % l ",
"6 6 ' = #.6 6 C C 6 6 6 6 6 6 6 6 6 6 v x U Z N j e : x { 6 ",
"6 6 P e $.6 6 S Z } _ ( ' 6 6 6 6 6 ' u = q m C Z o.$.6 6 6 ",
"6 O., k 6 6 6 6 X., q w e ^ 6 6 6 K * 5 P $.6 6 6 6 6 6 6 ..",
"6 / i C 6 6 6 6 6 %.*.o.h + X.6 &.- X d ..6 6 6 6 6 6 *.S O ",
"6 $.q K 6 6 6 6 6 6 6 6 B z y 6 6 $.) z e %.6 6 6 %.} d > g ",
"6 %.8 w &.6 6 6 6 6 6 6 C C 6 6 6 6 6 ) q ] 6 6 | q 8 e _ 6 ",
"6 6 b v O.6 6 6 6 6 6 6 S V  .O._ ( R f q @.6 _ g 8 v O.6 6 ",
"6 6 S n e ) A C Z ^ %.6 ' l ; = q w w q m y ^ O 9 { 6 6 6 6 ",
"6 6 6 } % q m C m e e Z q 4 ) #.*.$.$.$.6 $.w p ..6 6 6 6 6 ",
"6 6 6 6 o.] Y 6 6 ..s * t o Q 6 6 6 6 6 6 +.; { 6 6 6 6 6 6 ",
"+.6 6 6 6 6 6 6 6 6 { = J j ; +.6 6 6 6 6 ) 7 $.6 6 6 6 6 6 ",
"r X.6 6 6 6 6 6 6 6 6 j , K 2 _ 6 6 6 6 6 S % _ 6 6 6 6 6 6 ",
"V k W } 6 6 6 6 6 6 6 m e p : ..6 6 6 6 ( = @ ) 6 6 6 6 6 6 ",
"+.e 7 o v ] ..&.#.#.} a - - Q 6 6 6 $.Q 7 s 5 ) 6 6 6 6 6 6 ",
"6 | X.v l $ # 7 = = % . # G 6 6 { C s x e ^ 8 K 6 6 6 6 %.%.",
"6 6 6 6 } ; > I O.#.o.K e O. .H , f : n +.o.; 1 n ^ +.] 5 0 ",
"6 6 6 6 *.0 P 6 6 6 6 6 [ J & $ z #.O.6 6 6 { N n e ; q q T ",
"6 6 6 6 $.w ( 6 6 6 6 6 [ * < b &.6 6 6 6 6 6 6 6 | +.] %.6 ",
"6 6 6 6 $.w ( 6 6 6 6 6 #.# . p $.6 6 *.%.| | | 6 6 6 6 6 6 ",
"6 6 6 6 $.e Q 6 6 6 6 6 D 7 9 o z C b 0 5 q w q m 6 6 6 6 6 ",
"6 6 6 6 %.k S 6 6 6 6 6 M w U ) Z C z ; e U R f 0 } 6 6 6 6 ",
"6 Y ` ~ C , { 6 6 6 6 6  .8 _ 6 6 6 $.c c Y 6 ..0 g @.6 6 6 ",
"m v e w e v 6 6 6 6 6 } s : ..6 6 6 6 G r | 6 6 m 8 v { _ _ ",
"* s ..M M 6 6 6 o.{ B 8 q P 6 6 6 6 _ ; c 6 6 6 %.b 0 - q q ",
", G 6 L 6 [ ^ b = % k e { 6 6 6 F E 7 # } 6 6 6 6 6 $.#.*.*.",
"G _ _ e x e e n n { =.&.6 6 6 %.m w 5 P 6 6 6 6 6 6 6 6 6 6 "
};
