/* XPM */
static char *a5d82ae18ca24dbb8e7d5e0a8a5c4acbFr85BqfAOh8lzZRv[] = {
/* columns rows colors chars-per-pixel */
"60 60 75 1 ",
"  c #030101",
". c #040201",
"X c #080302",
"o c #090402",
"O c #0D0603",
"+ c #0F0704",
"@ c #130A05",
"# c #150B06",
"$ c #160B06",
"% c #1A0E07",
"& c #1B1008",
"* c #1D1109",
"= c #20120A",
"- c #21140B",
"; c #24150C",
": c #27180E",
"> c #28190F",
", c #2A1A10",
"< c #2C1B11",
"1 c #2E1D12",
"2 c #301E13",
"3 c #332014",
"4 c #362216",
"5 c #382417",
"6 c #3A2518",
"7 c #3C271A",
"8 c #3F291B",
"9 c #3F291C",
"0 c #40291B",
"q c #402A1C",
"w c #442C1D",
"e c #462E1F",
"r c #4A3121",
"t c #4C3222",
"y c #4E3423",
"u c #513524",
"i c #533725",
"p c #543826",
"a c #573A28",
"s c #593B29",
"d c #593C29",
"f c #5C3E2A",
"g c #5F3F2C",
"h c #5F402C",
"j c #60402D",
"k c #64432E",
"l c #65442F",
"z c #674530",
"x c #694731",
"c c #6B4832",
"v c #6D4933",
"b c #6F4B35",
"n c #724D36",
"m c #744F37",
"M c #775139",
"N c #7B533B",
"B c #7B543B",
"V c #7C543B",
"C c #7F563D",
"Z c #80573D",
"A c #83593F",
"S c #845A40",
"D c #875C41",
"F c #885D41",
"G c #8C5F44",
"H c #8C6044",
"J c #916347",
"K c #926447",
"L c #936548",
"P c #966749",
"I c #97684A",
"U c #99694B",
"Y c #9B6A4C",
"T c #9C6B4C",
"R c #9E6D4E",
/* pixels */
"RRRRRRRRRRRRRPNt=.                         .4zFTRRRRRRRRRRRR",
"RRRRRRRRRRRRRUAu=                          OqnKRRRRRRRRRRRRR",
"RRRRRRRRRRRRRUSp*                          @rNPRRRRRRRRRRRRR",
"RRRRRRRRRRRRRYSp%                          @rNPRRRRRRRRRRRRR",
"RRRRRRRRRRRRRUAu$                          @eMPRRRRRRRRRRRRR",
"RRRRRRRRRRRRRUAu@                          o8bKRRRRRRRRRRRRR",
"RRRRRRRRRRRRRUZy@                          .2xHRRRRRRRRRRRRR",
"RRRRRRRRRRRRRUZt@                           :jGTRRRRRRRRRRRR",
"RRRRRRRRRRRRRUCt@                          .>jFTRRRRRRRRRRRR",
"RRRRRRRRRRRRRUCy@                          .,jFYRRRRRRRRRRRR",
"RRRRRRRRRRRRRUZt@                          .<jFYRRRRRRRRRRRR",
"RRRRRRRRRRRRRUZt@                          .1kFYRRRRRRRRRRRR",
"RRRRRRRRRRRRRUZy@                          .1kHTRRRRRRRRRRRR",
"RRRRRRRRRRRRRUCt@                          .1lHTRRRRRRRRRRRR",
"RRRRRRRRRRRRRUCt@                          .1xHTRRRRRRRRRRRR",
"RRRRRRRRRRRRRUCr@                          .3xHTRRRRRRRRRRRR",
"RRRRRRRRRRRRRUCr@                          o4vJTRRRRRRRRRRRR",
"RRRRRRRRRRRRRUCr@                          o6bJRRRRRRRRRRRRR",
"RRRRRRRRRRRRRUVr@                          o8nKRRRRRRRRRRRRR",
"RRRRRRRRRRRRRUCt@                          OqnKRRRRRRRRRRRRR",
"RRRRRRRRRRRRRUCt@                          OqmLRRRRRRRRRRRRR",
"RRRRRRRRRRRRRUCr@                          OeMPRRRRRRRRRRRRR",
"RRRRRRRRRRRRRUCt@                          +eMPRRRRRRRRRRRRR",
"RRRRRRRRRRRRRUCt@                          +eNPRRRRRRRRRRRRR",
"RRRRRRRRRRRRRUCt@                          @rNPRRRRRRRRRRRRR",
"RRRRRRRRRRRRRUZu@                          @rNPRRRRRRRRRRRRR",
"RRRRRRRRRRRRRUAu$                          @rNPRRRRRRRRRRRRR",
"RRRRRRRRRRRRRUAp$                          @rNPRRRRRRRRRRRRR",
"RRRRRRRRRRRRRUSp$                          @rNPRRRRRRRRRRRRR",
"RRRRRRRRRRRRRUSa$                          @rVPRRRRRRRRRRRRR",
"RRRRRRRRRRRRRYSa%                          @tCIRRRRRRRRRRRRR",
"RRRRRRRRRRRRRYDd*                          $uCURRRRRRRRRRRRR",
"RRRRRRRRRRRRRYDd*                          *uAIRRRRRRRRRRRRR",
"RRRRRRRRRRRRRYFf-                          ;sSURRRRRRRRRRRRR",
"RRRRRRRRRRRRRYFd-                         .>fSURRRRRRRRRRRRR",
"RRRRRRRRRRRRRYDf-                         .1hFURRRRRRRRRRRRR",
"RRRRRRRRRRRRRYDd*                         .1jFYRRRRRRRRRRRRR",
"RRRRRRRRRRRRRYDd*                         .2jFYRRRRRRRRRRRRR",
"RRRRRRRRRRRRRYDd*                         X3lFYRRRRRRRRRRRRR",
"RRRRRRRRRRRRRYDd*                         o4zHYRRRRRRRRRRRRR",
"RRRRRRRRRRRRRYFd-                         o5xHTRRRRRRRRRRRRR",
"RRRRRRRRRRRRRTFf:.                        o6cHTRRRRRRRRRRRRR",
"RRRRRRRRRRRRRTFj,.                        o6vHTRRRRRRRRRRRRR",
"RRRRRRRRRRRRRTFj1.                        o7vHTRRRRRRRRRRRRR",
"RRRRRRRRRRRRRTGk1.                        O8bJTRRRRRRRRRRRRR",
"RRRRRRRRRRRRRTFk2.                        O8bJTRRRRRRRRRRRRR",
"RRRRRRRRRRRRRTGj1.                        O0bJTRRRRRRRRRRRRR",
"RRRRRRRRRRRRRTFj,.                        OqbHTRRRRRRRRRRRRR",
"RRRRRRRRRRRRRTFg:.                        OqbHTRRRRRRRRRRRRR",
"RRRRRRRRRRRRRYDd=                         O8bHTRRRRRRRRRRRRR",
"RRRRRRRRRRRRRYDs&                         O8vHYRRRRRRRRRRRRR",
"RRRRRRRRRRRRRYSa%                         O0bHTRRRRRRRRRRRRR",
"RRRRRRRRRRRRRYAp$                         O8bJTRRRRRRRRRRRRR",
"RRRRRRRRRRRRRUAu@                         O8nKTRRRRRRRRRRRRR",
"RRRRRRRRRRRRRUZy@                         O9mPRRRRRRRRRRRRRR",
"RRRRRRRRRRRRRUCt@                         O8MPRRRRRRRRRRRRRR",
"RRRRRRRRRRRRRUBr@                         O9MPRRRRRRRRRRRRRR",
"RRRRRRRRRRRRRPMe+                         o6nPRRRRRRRRRRRRRR",
"RRRRRRRRRRRRRJb0O                         .4cHTRRRRRRRRRRRRR",
"TRRRRRRRRRRRYFl4o                          >dSURRRRRRRRRRRRY"
};
